<svg width="416" height="69" viewBox="0 0 416 69" fill="none" xmlns="http://www.w3.org/2000/svg">
<path fill-rule="evenodd" clip-rule="evenodd" d="M290.415 14.9833L294.267 53.4716C294.599 56.7849 299.272 57.1732 300.146 53.96L301.653 48.4128C301.89 47.5416 302.681 46.9371 303.583 46.9371H304.998L306.047 45.114C306.562 44.2185 307.802 44.0905 308.489 44.8618C309.269 45.7366 310.384 46.2368 311.556 46.2368L416 46.2369V42.2355L311.556 42.2355C311.525 42.2355 311.495 42.2223 311.475 42.1991C309 39.4224 304.558 39.8473 302.645 43.0092C300.342 43.373 298.421 45.0565 297.794 47.3628L297.707 47.6842L293.205 2.70202C292.839 -0.959854 287.476 -0.872708 287.228 2.79907L283.578 56.9512L283.25 54.8374C282.662 51.0473 280.299 47.7666 276.892 46.0093L275.518 45.3005C274.665 44.8609 273.999 44.1297 273.641 43.24L272.459 40.307C271.003 36.692 266.156 36.0593 263.821 39.1793L261.534 42.2355H246.451C246.153 42.2355 245.87 42.1025 245.68 41.8726L237.995 33.1319C237.998 33.0835 238 33.034 238 32.9832C238 32.5238 237.869 32.1739 237.606 31.9332C237.344 31.6926 236.972 31.5723 236.491 31.5723H226.964L232.685 25.568C233.647 24.5618 234.424 23.6103 235.014 22.7134C235.627 21.7947 236.075 20.8979 236.359 20.0229C236.666 19.148 236.819 18.2512 236.819 17.3325C236.819 15.9763 236.534 14.8279 235.966 13.8873C235.397 12.9468 234.555 12.2359 233.439 11.7546C232.346 11.2515 231 11 229.404 11C228.179 11 226.976 11.1859 225.794 11.5578C224.613 11.9296 223.574 12.4546 222.677 13.1327C222.349 13.3514 222.141 13.6139 222.054 13.9201C221.966 14.2264 221.956 14.5217 222.021 14.806C222.087 15.0904 222.218 15.331 222.415 15.5279C222.634 15.7247 222.885 15.8341 223.17 15.856C223.454 15.8779 223.76 15.7794 224.088 15.5607C224.898 14.9701 225.707 14.5436 226.516 14.2811C227.326 14.0186 228.168 13.8873 229.043 13.8873C230.486 13.8873 231.58 14.2045 232.324 14.8389C233.067 15.4732 233.439 16.4028 233.439 17.6278C233.439 18.5902 233.199 19.5527 232.717 20.5151C232.258 21.4557 231.493 22.4947 230.421 23.6321L223.432 31.113C223.148 31.4192 222.929 31.7145 222.776 31.9989C222.623 32.2832 222.546 32.5785 222.546 32.8848C222.546 33.366 222.677 33.7488 222.94 34.0331C223.202 34.2956 223.629 34.4269 224.219 34.4269H234.352L242.598 44.4222C243.548 45.5715 244.96 46.2368 246.451 46.2368H263.536L267.023 41.5776C267.49 40.9536 268.459 41.0801 268.75 41.8031L269.932 44.7361C270.649 46.5155 271.981 47.978 273.685 48.8571L275.06 49.5659C277.331 50.7374 278.906 52.9246 279.298 55.4513L281.007 66.4592C281.556 69.9979 286.722 69.7739 286.963 66.2007L290.415 14.9833ZM165.199 34.4269C164.608 34.4269 164.181 34.2956 163.919 34.0331C163.656 33.7488 163.525 33.366 163.525 32.8848C163.525 32.5785 163.602 32.2832 163.755 31.9989C163.908 31.7145 164.127 31.4192 164.411 31.113L171.4 23.6321C172.472 22.4947 173.237 21.4557 173.697 20.5151C174.178 19.5527 174.418 18.5902 174.418 17.6278C174.418 16.4028 174.047 15.4732 173.303 14.8389C172.559 14.2045 171.465 13.8873 170.022 13.8873C169.147 13.8873 168.305 14.0186 167.495 14.2811C166.686 14.5436 165.877 14.9701 165.067 15.5607C164.739 15.7794 164.433 15.8779 164.149 15.856C163.864 15.8341 163.613 15.7247 163.394 15.5279C163.197 15.331 163.066 15.0904 163 14.806C162.935 14.5217 162.946 14.2264 163.033 13.9201C163.121 13.6139 163.328 13.3514 163.656 13.1327C164.553 12.4546 165.592 11.9296 166.774 11.5578C167.955 11.1859 169.158 11 170.383 11C171.979 11 173.325 11.2515 174.418 11.7546C175.534 12.2359 176.376 12.9468 176.945 13.8873C177.514 14.8279 177.798 15.9763 177.798 17.3325C177.798 18.2512 177.645 19.148 177.339 20.0229C177.054 20.8979 176.606 21.7947 175.993 22.7134C175.403 23.6103 174.626 24.5618 173.664 25.568L167.943 31.5723H177.47C177.951 31.5723 178.323 31.6926 178.585 31.9332C178.848 32.1739 178.979 32.5238 178.979 32.9832C178.979 33.4425 178.848 33.8035 178.585 34.0659C178.323 34.3066 177.951 34.4269 177.47 34.4269H165.199ZM190.417 34.7222C187.727 34.7222 185.671 33.705 184.249 31.6708C182.849 29.6146 182.149 26.6726 182.149 22.8447C182.149 20.2417 182.466 18.0652 183.1 16.3153C183.735 14.5654 184.664 13.2421 185.889 12.3452C187.114 11.4484 188.624 11 190.417 11C193.13 11 195.186 12.0062 196.586 14.0186C197.986 16.0091 198.686 18.9402 198.686 22.8119C198.686 25.3711 198.368 27.5366 197.734 29.3084C197.1 31.0802 196.17 32.4254 194.945 33.3441C193.72 34.2628 192.211 34.7222 190.417 34.7222ZM190.417 31.9004C192.102 31.9004 193.337 31.1677 194.125 29.7021C194.934 28.2147 195.339 25.9179 195.339 22.8119C195.339 19.6839 194.934 17.409 194.125 15.9872C193.337 14.5436 192.102 13.8217 190.417 13.8217C188.755 13.8217 187.519 14.5436 186.71 15.9872C185.9 17.409 185.496 19.6839 185.496 22.8119C185.496 25.9179 185.9 28.2147 186.71 29.7021C187.519 31.1677 188.755 31.9004 190.417 31.9004ZM203.266 34.0331C203.529 34.2956 203.955 34.4269 204.546 34.4269H216.817C217.298 34.4269 217.67 34.3066 217.933 34.0659C218.195 33.8035 218.326 33.4425 218.326 32.9832C218.326 32.5238 218.195 32.1739 217.933 31.9332C217.67 31.6926 217.298 31.5723 216.817 31.5723H207.29L213.011 25.568C213.973 24.5618 214.75 23.6103 215.341 22.7134C215.953 21.7947 216.401 20.8979 216.686 20.0229C216.992 19.148 217.145 18.2512 217.145 17.3325C217.145 15.9763 216.861 14.8279 216.292 13.8873C215.723 12.9468 214.881 12.2359 213.766 11.7546C212.672 11.2515 211.327 11 209.73 11C208.505 11 207.302 11.1859 206.121 11.5578C204.94 11.9296 203.901 12.4546 203.004 13.1327C202.676 13.3514 202.468 13.6139 202.38 13.9201C202.293 14.2264 202.282 14.5217 202.348 14.806C202.413 15.0904 202.544 15.331 202.741 15.5279C202.96 15.7247 203.212 15.8341 203.496 15.856C203.78 15.8779 204.087 15.7794 204.415 15.5607C205.224 14.9701 206.033 14.5436 206.843 14.2811C207.652 14.0186 208.494 13.8873 209.369 13.8873C210.813 13.8873 211.906 14.2045 212.65 14.8389C213.394 15.4732 213.766 16.4028 213.766 17.6278C213.766 18.5902 213.525 19.5527 213.044 20.5151C212.584 21.4557 211.819 22.4947 210.747 23.6321L203.758 31.113C203.474 31.4192 203.255 31.7145 203.102 31.9989C202.949 32.2832 202.873 32.5785 202.873 32.8848C202.873 33.366 203.004 33.7488 203.266 34.0331ZM0.42654 34.23C0.710899 34.5144 1.10463 34.6565 1.60773 34.6565C2.11082 34.6565 2.49362 34.5144 2.7561 34.23C3.01859 33.9456 3.14983 33.541 3.14983 33.016V16.8536L15.8476 33.6394C16.1319 34.0113 16.3944 34.2737 16.635 34.4269C16.8975 34.58 17.2256 34.6565 17.6194 34.6565C18.035 34.6565 18.3631 34.5144 18.6037 34.23C18.8662 33.9456 18.9974 33.5519 18.9974 33.0488V12.6733C18.9974 12.1702 18.8662 11.7765 18.6037 11.4922C18.3412 11.2078 17.9475 11.0656 17.4225 11.0656C16.9194 11.0656 16.5257 11.2078 16.2413 11.4922C15.9788 11.7765 15.8476 12.1702 15.8476 12.6733V28.7851L3.14983 12.0499C2.86547 11.6781 2.61392 11.4265 2.39518 11.2953C2.19832 11.1422 1.90302 11.0656 1.50929 11.0656C1.04994 11.0656 0.678089 11.2187 0.393729 11.525C0.131243 11.8093 0 12.2249 0 12.7718V33.016C0 33.541 0.14218 33.9456 0.42654 34.23ZM30.9787 34.7222C29.3601 34.7222 27.9601 34.3831 26.7789 33.705C25.6196 33.0269 24.7119 32.0645 24.0557 30.8177C23.3994 29.5709 23.0713 28.1053 23.0713 26.421C23.0713 25.1305 23.2573 23.9821 23.6291 22.9759C24.001 21.9697 24.5259 21.1057 25.204 20.3839C25.904 19.6402 26.7352 19.0824 27.6976 18.7105C28.682 18.3168 29.7757 18.1199 30.9787 18.1199C32.5755 18.1199 33.9536 18.459 35.1129 19.1371C36.2941 19.8151 37.2128 20.7776 37.869 22.0244C38.5252 23.2493 38.8533 24.7149 38.8533 26.421C38.8533 27.6897 38.6674 28.8381 38.2955 29.8662C37.9237 30.8942 37.3878 31.7692 36.6878 32.491C36.0097 33.2129 35.1785 33.7706 34.1942 34.1644C33.2317 34.5362 32.1599 34.7222 30.9787 34.7222ZM30.9787 32.1629C31.8755 32.1629 32.663 31.9442 33.3411 31.5067C34.0192 31.0692 34.5442 30.424 34.916 29.5709C35.3097 28.7178 35.5066 27.6678 35.5066 26.421C35.5066 24.5399 35.091 23.1181 34.2598 22.1556C33.4286 21.1932 32.3349 20.712 30.9787 20.712C30.06 20.712 29.2616 20.9307 28.5835 21.3682C27.9054 21.7838 27.3695 22.4181 26.9758 23.2712C26.604 24.1243 26.418 25.1742 26.418 26.421C26.418 28.2803 26.8336 29.7021 27.6648 30.6864C28.496 31.6708 29.6007 32.1629 30.9787 32.1629ZM47.2739 34.2956C47.6238 34.5362 48.0285 34.6565 48.4879 34.6565C48.9472 34.6565 49.3519 34.5362 49.7019 34.2956C50.0518 34.055 50.3253 33.6832 50.5221 33.1801L56.0672 20.4167C56.2421 20.0229 56.2968 19.662 56.2312 19.3339C56.1875 18.9839 56.0453 18.7105 55.8047 18.5137C55.5859 18.2949 55.2797 18.1855 54.886 18.1855C54.4266 18.1855 54.0657 18.284 53.8032 18.4808C53.5626 18.6777 53.3439 19.0167 53.147 19.498L48.558 30.5831L44.0584 19.498C43.8616 19.0167 43.6428 18.6777 43.4022 18.4808C43.1616 18.284 42.8335 18.1855 42.4179 18.1855C41.9367 18.1855 41.5539 18.2949 41.2695 18.5137C40.9851 18.7105 40.8211 18.9839 40.7773 19.3339C40.7336 19.6839 40.7992 20.0558 40.9742 20.4495L46.4536 33.1801C46.6723 33.6832 46.9458 34.055 47.2739 34.2956ZM66.5581 34.7222C64.8082 34.7222 63.2989 34.3941 62.0302 33.7378C60.7834 33.0597 59.81 32.1082 59.1101 30.8833C58.432 29.6365 58.093 28.16 58.093 26.4539C58.093 24.7914 58.432 23.3368 59.1101 22.09C59.7882 20.8432 60.7178 19.8698 61.899 19.1699C63.0802 18.4699 64.4254 18.1199 65.9347 18.1199C67.0503 18.1199 68.0455 18.3059 68.9205 18.6777C69.7954 19.0277 70.5392 19.5527 71.1516 20.2526C71.786 20.9307 72.2563 21.7619 72.5625 22.7462C72.8906 23.7306 73.0546 24.8352 73.0546 26.0601C73.0546 26.432 72.9453 26.7163 72.7265 26.9132C72.5078 27.0882 72.1797 27.1757 71.7422 27.1757H61.3048C61.4175 28.6988 61.8562 29.88 62.6208 30.7192C63.5395 31.6817 64.8629 32.1629 66.5909 32.1629C67.2471 32.1629 67.9362 32.0754 68.658 31.9004C69.4017 31.7254 70.1017 31.4301 70.7579 31.0145C71.1298 30.7958 71.4579 30.6974 71.7422 30.7192C72.0484 30.7411 72.2891 30.8396 72.4641 31.0145C72.6609 31.1895 72.7812 31.4083 72.825 31.6708C72.8687 31.9332 72.825 32.2067 72.6937 32.491C72.5625 32.7535 72.3328 32.9941 72.0047 33.2129C71.261 33.716 70.397 34.0988 69.4127 34.3612C68.4283 34.6019 67.4768 34.7222 66.5581 34.7222ZM61.8334 23.1728C61.5768 23.7613 61.4088 24.4175 61.3292 25.1414H70.2557C70.2154 24.2444 70.0547 23.4679 69.7736 22.8119C69.4673 22.0463 68.997 21.4666 68.3627 21.0729C67.7502 20.6573 66.9847 20.4495 66.066 20.4495C65.0379 20.4495 64.1629 20.6901 63.4411 21.1713C62.7411 21.6525 62.2052 22.3197 61.8334 23.1728ZM77.1596 34.23C77.4439 34.5144 77.8486 34.6565 78.3736 34.6565C79.4891 34.6565 80.0469 34.0988 80.0469 32.9832V25.4695C80.0469 24.004 80.386 22.8556 81.0641 22.0244C81.764 21.1932 82.7155 20.7776 83.9186 20.7776C84.9904 20.7776 85.756 21.0948 86.2153 21.7291C86.6747 22.3634 86.9044 23.3587 86.9044 24.7149V32.9832C86.9044 33.5082 87.0465 33.9238 87.3309 34.23C87.6371 34.5144 88.0527 34.6565 88.5777 34.6565C89.1027 34.6565 89.5073 34.5144 89.7917 34.23C90.0761 33.9238 90.2183 33.5082 90.2183 32.9832V25.4695C90.2183 24.004 90.5682 22.8556 91.2682 22.0244C91.9682 21.1932 92.9197 20.7776 94.1227 20.7776C95.1945 20.7776 95.9601 21.0948 96.4195 21.7291C96.9007 22.3634 97.1413 23.3587 97.1413 24.7149V32.9832C97.1413 33.5082 97.2835 33.9238 97.5679 34.23C97.8522 34.5144 98.2569 34.6565 98.7819 34.6565C99.3068 34.6565 99.7115 34.5144 99.9958 34.23C100.302 33.9238 100.455 33.5082 100.455 32.9832V24.5508C100.455 23.1072 100.258 21.915 99.8646 20.9745C99.4709 20.012 98.8803 19.3011 98.0928 18.8418C97.3054 18.3605 96.2992 18.1199 95.0742 18.1199C93.7399 18.1199 92.5697 18.4699 91.5635 19.1699C90.7506 19.7177 90.1305 20.4368 89.7031 21.3272C89.3746 20.3455 88.8682 19.5936 88.184 19.0714C87.3528 18.4371 86.27 18.1199 84.9357 18.1199C83.6452 18.1199 82.5405 18.448 81.6218 19.1042C80.926 19.6012 80.3682 20.2425 79.9485 21.0281V19.8589C79.9485 19.312 79.8063 18.8964 79.522 18.6121C79.2595 18.3277 78.8657 18.1855 78.3408 18.1855C77.8377 18.1855 77.4439 18.3277 77.1596 18.6121C76.8752 18.8964 76.733 19.312 76.733 19.8589V32.9832C76.733 33.5082 76.8752 33.9238 77.1596 34.23ZM113.685 34.7222C112.285 34.7222 111.071 34.3722 110.043 33.6722C109.294 33.1468 108.726 32.4996 108.337 31.7307V32.9832C108.337 33.5082 108.195 33.9238 107.91 34.23C107.626 34.5144 107.232 34.6565 106.729 34.6565C106.204 34.6565 105.799 34.5144 105.515 34.23C105.231 33.9238 105.088 33.5082 105.088 32.9832V12.739C105.088 12.1921 105.231 11.7765 105.515 11.4922C105.799 11.2078 106.204 11.0656 106.729 11.0656C107.254 11.0656 107.659 11.2078 107.943 11.4922C108.249 11.7765 108.402 12.1921 108.402 12.739V20.9712C108.79 20.2502 109.348 19.6498 110.076 19.1699C111.104 18.4699 112.307 18.1199 113.685 18.1199C115.129 18.1199 116.375 18.459 117.425 19.1371C118.475 19.8151 119.285 20.7667 119.853 21.9916C120.444 23.2165 120.739 24.693 120.739 26.421C120.739 28.1053 120.444 29.5818 119.853 30.8505C119.285 32.0973 118.464 33.0597 117.392 33.7378C116.343 34.3941 115.107 34.7222 113.685 34.7222ZM112.865 32.1629C113.783 32.1629 114.582 31.9442 115.26 31.5067C115.938 31.0692 116.463 30.424 116.835 29.5709C117.207 28.7178 117.392 27.6678 117.392 26.421C117.392 24.5399 116.977 23.1181 116.146 22.1556C115.336 21.1932 114.243 20.712 112.865 20.712C111.968 20.712 111.169 20.9307 110.469 21.3682C109.791 21.7838 109.266 22.4181 108.894 23.2712C108.523 24.1243 108.337 25.1742 108.337 26.421C108.337 28.2803 108.752 29.7021 109.584 30.6864C110.415 31.6708 111.508 32.1629 112.865 32.1629ZM127.459 33.7378C128.728 34.3941 130.237 34.7222 131.987 34.7222C132.906 34.7222 133.858 34.6019 134.842 34.3612C135.826 34.0988 136.69 33.716 137.434 33.2129C137.762 32.9941 137.992 32.7535 138.123 32.491C138.254 32.2067 138.298 31.9332 138.254 31.6708C138.21 31.4083 138.09 31.1895 137.893 31.0145C137.718 30.8396 137.478 30.7411 137.171 30.7192C136.887 30.6974 136.559 30.7958 136.187 31.0145C135.531 31.4301 134.831 31.7254 134.087 31.9004C133.365 32.0754 132.676 32.1629 132.02 32.1629C130.292 32.1629 128.969 31.6817 128.05 30.7192C127.285 29.88 126.847 28.6988 126.734 27.1757H137.171C137.609 27.1757 137.937 27.0882 138.156 26.9132C138.375 26.7163 138.484 26.432 138.484 26.0601C138.484 24.8352 138.32 23.7306 137.992 22.7462C137.685 21.7619 137.215 20.9307 136.581 20.2526C135.968 19.5527 135.225 19.0277 134.35 18.6777C133.475 18.3059 132.48 18.1199 131.364 18.1199C129.855 18.1199 128.509 18.4699 127.328 19.1699C126.147 19.8698 125.217 20.8432 124.539 22.09C123.861 23.3368 123.522 24.7914 123.522 26.4539C123.522 28.16 123.861 29.6365 124.539 30.8833C125.239 32.1082 126.213 33.0597 127.459 33.7378ZM126.758 25.1414C126.838 24.4175 127.006 23.7613 127.263 23.1728C127.634 22.3197 128.17 21.6525 128.87 21.1713C129.592 20.6901 130.467 20.4495 131.495 20.4495C132.414 20.4495 133.179 20.6573 133.792 21.0729C134.426 21.4666 134.897 22.0463 135.203 22.8119C135.484 23.4679 135.645 24.2444 135.685 25.1414H126.758ZM143.77 34.6565C143.223 34.6565 142.808 34.5144 142.523 34.23C142.239 33.9238 142.097 33.5082 142.097 32.9832V19.8589C142.097 19.312 142.239 18.8964 142.523 18.6121C142.808 18.3277 143.201 18.1855 143.704 18.1855C144.229 18.1855 144.623 18.3277 144.886 18.6121C145.17 18.8964 145.312 19.312 145.312 19.8589V21.3056C145.685 20.4513 146.221 19.7722 146.92 19.2683C147.86 18.5902 149.063 18.1965 150.529 18.0871C150.923 18.0652 151.229 18.1637 151.448 18.3824C151.688 18.6011 151.82 18.9402 151.841 19.3995C151.885 19.8589 151.787 20.2307 151.546 20.5151C151.306 20.7776 150.934 20.9307 150.431 20.9745L149.807 21.0401C148.385 21.1713 147.303 21.6197 146.559 22.3853C145.815 23.1509 145.443 24.2008 145.443 25.5352V32.9832C145.443 33.5082 145.301 33.9238 145.017 34.23C144.754 34.5144 144.339 34.6565 143.77 34.6565Z" fill="url(#paint0_linear_50_856)"/>
<defs>
<linearGradient id="paint0_linear_50_856" x1="236.041" y1="31.532" x2="337.52" y2="44.5221" gradientUnits="userSpaceOnUse">
<stop stop-color="#E53E3E"/>
<stop offset="1" stop-color="#E53E3E" stop-opacity="0"/>
</linearGradient>
</defs>
</svg>
