<svg width="293" height="69" viewBox="0 0 293 69" fill="none" xmlns="http://www.w3.org/2000/svg">
<path d="M121.76 53.4541L125.613 14.9784L129.066 66.1791C129.307 69.7511 134.475 69.9751 135.024 66.4374L136.732 55.4332C137.125 52.9073 138.7 50.7209 140.972 49.5497L142.347 48.8411C144.052 47.9623 145.384 46.5003 146.101 44.7214L147.283 41.7894C147.575 41.0667 148.544 40.9402 149.011 41.564L152.499 46.2217H169.588C171.078 46.2217 172.491 45.5566 173.441 44.4077L183.041 32.7961L179.959 30.2473L170.358 41.8589C170.168 42.0887 169.886 42.2217 169.588 42.2217H154.501L152.213 39.1665C149.878 36.0475 145.03 36.68 143.573 40.2938L142.391 43.2258C142.033 44.1153 141.367 44.8463 140.514 45.2857L139.14 45.9942C135.731 47.751 133.368 51.0306 132.78 54.8195L132.452 56.9326L128.801 2.79816C128.553 -0.872414 123.189 -0.959531 122.822 2.70114L118.32 47.6686L118.232 47.3473C117.605 45.0418 115.684 43.3588 113.381 42.9952C111.468 39.8342 107.024 39.4095 104.549 42.1853C104.528 42.2085 104.499 42.2217 104.468 42.2217L0 42.2217V46.2217L104.468 46.2217C105.639 46.2217 106.755 45.7216 107.535 44.8471C108.222 44.076 109.463 44.2041 109.978 45.0993L111.028 46.9217H112.443C113.345 46.9217 114.136 47.5261 114.373 48.3969L115.881 53.9424C116.754 57.1545 121.429 56.7664 121.76 53.4541Z" fill="url(#paint0_linear_50_864)"/>
<path d="M234.985 29.8922C234.89 30.6164 234.843 31.2471 234.843 31.7844C234.843 33.3962 235.138 34.7745 235.728 35.9191C236.319 37.0872 237.122 38.0332 238.137 38.7574C239.176 39.4816 240.368 40.0072 241.714 40.3342C243.084 40.6846 244.548 40.8598 246.106 40.8598C248.043 40.8598 249.707 40.6146 251.1 40.124C252.494 39.6334 253.662 38.9793 254.607 38.1617C255.552 37.3675 256.295 36.4681 256.838 35.4636C257.405 34.4591 257.807 33.4429 258.043 32.4151C258.279 31.3639 258.397 30.3711 258.397 29.4367C258.397 28.3854 258.267 27.2758 258.007 26.1078C257.771 24.9398 257.452 23.8185 257.051 22.7439C256.65 21.646 256.213 20.6882 255.74 19.8706L251.171 21.7978C252.021 23.4564 252.612 24.9515 252.942 26.283C253.273 27.5912 253.438 28.7242 253.438 29.6819C253.438 30.3827 253.332 31.1069 253.119 31.8544C252.907 32.5786 252.541 33.2444 252.021 33.8518C251.502 34.4825 250.77 34.9847 249.825 35.3585C248.881 35.7556 247.677 35.9542 246.213 35.9542C244.937 35.9542 243.816 35.7673 242.848 35.3935C241.88 35.0431 241.124 34.4942 240.581 33.7466C240.061 33.0225 239.802 32.088 239.802 30.9434C239.802 30.4528 239.849 29.9623 239.943 29.4717C240.038 28.9578 240.179 28.4088 240.368 27.8248C240.557 27.2174 240.782 26.5517 241.041 25.8275L236.685 24.3208C236.165 25.4654 235.776 26.5049 235.516 27.4394C235.256 28.3504 235.079 29.168 234.985 29.8922Z" fill="#E53E3E"/>
<path d="M244.512 17.7332C245.032 18.2237 245.658 18.469 246.39 18.469C247.098 18.469 247.7 18.2237 248.196 17.7332C248.716 17.2426 248.975 16.6352 248.975 15.9111C248.975 15.1869 248.716 14.5678 248.196 14.0539C247.7 13.54 247.098 13.283 246.39 13.283C245.658 13.283 245.032 13.54 244.512 14.0539C244.017 14.5678 243.769 15.1869 243.769 15.9111C243.769 16.6352 244.017 17.2426 244.512 17.7332Z" fill="#E53E3E"/>
<path d="M266.303 32.2749C267.507 32.7188 269.207 32.9407 271.403 32.9407C271.419 32.9407 271.435 32.9406 271.451 32.9405C272.467 32.9405 273.447 32.8823 274.391 32.7655C275.336 32.6487 276.198 32.4385 276.977 32.1348C277.78 31.8077 278.464 31.3639 279.031 30.8032C279.622 30.2192 280.082 29.4951 280.413 28.6307C280.743 27.743 280.908 26.6568 280.908 25.372C280.908 24.3441 280.802 23.2812 280.59 22.1833C280.401 21.062 280.165 19.9757 279.881 18.9245C279.598 17.8733 279.315 16.9506 279.031 16.1563L274.143 17.4879C274.427 18.3055 274.71 19.2048 274.993 20.186C275.277 21.1671 275.501 22.1132 275.666 23.0243C275.855 23.9353 275.95 24.7179 275.95 25.372C275.95 26.0961 275.82 26.6568 275.56 27.0539C275.3 27.4277 274.863 27.6846 274.25 27.8248C273.659 27.965 272.845 28.035 271.806 28.035C271.79 28.0349 271.774 28.035 271.757 28.035C270.719 28.035 269.927 27.9416 269.384 27.7547C268.865 27.5678 268.511 27.2058 268.322 26.6685C268.133 26.1312 268.015 25.3252 267.968 24.2507L267.224 7.1159H262.265L263.009 26.5984C263.08 28.0467 263.351 29.2498 263.824 30.2075C264.296 31.142 265.122 31.8311 266.303 32.2749Z" fill="#E53E3E"/>
<path d="M274.037 40.2992C274.533 40.7664 275.123 41 275.808 41C276.493 41 277.071 40.7664 277.544 40.2992C278.039 39.832 278.287 39.2597 278.287 38.5822C278.287 37.9048 278.039 37.3091 277.544 36.7951C277.071 36.3046 276.493 36.0593 275.808 36.0593C275.123 36.0593 274.533 36.3046 274.037 36.7951C273.565 37.3091 273.329 37.9048 273.329 38.5822C273.329 39.2597 273.565 39.832 274.037 40.2992Z" fill="#E53E3E"/>
<path d="M284.783 9.56873L285.456 32.7655H290.414L289.741 9.56873H284.783Z" fill="#E53E3E"/>
<path d="M287.581 5.81941C288.148 6.05301 288.785 6.16981 289.493 6.16981C289.871 6.16981 290.332 6.07637 290.875 5.88949C291.442 5.70261 292.15 5.24708 293 4.52291L291.76 2.59569C291.288 2.87601 290.887 3.08625 290.556 3.22641C290.225 3.34322 289.871 3.40162 289.493 3.40162C288.903 3.40162 288.348 3.28481 287.829 3.05121L286.341 2.3504C285.845 2.1168 285.302 2 284.712 2C284.051 2 283.39 2.19856 282.728 2.59569C282.091 2.99281 281.453 3.5885 280.816 4.38275L282.48 5.92453C282.858 5.55076 283.212 5.25876 283.543 5.04852C283.897 4.83828 284.287 4.73315 284.712 4.73315C285.113 4.73315 285.55 4.84996 286.022 5.08356C286.495 5.31716 287.014 5.56244 287.581 5.81941Z" fill="#E53E3E"/>
<path d="M178.152 32.9057L183.076 32.7655C183.076 31.8544 183.04 30.6981 182.969 29.2965C182.922 27.8949 182.816 26.3414 182.651 24.6361C182.509 22.9308 182.32 21.1554 182.084 19.31C181.848 17.4645 181.553 15.6424 181.198 13.8437C180.868 12.0449 180.466 10.363 179.994 8.79784L175 10.1294C175.331 11.3675 175.638 12.699 175.921 14.124C176.204 15.549 176.464 17.009 176.7 18.504C176.936 19.9991 177.137 21.4708 177.302 22.9191C177.491 24.3441 177.645 25.699 177.763 26.9838C177.904 28.2686 177.999 29.425 178.046 30.4528C178.117 31.4573 178.152 32.2749 178.152 32.9057Z" fill="#E53E3E"/>
<path d="M189.947 32.9057L194.729 32.7655C194.729 31.8544 194.693 30.6981 194.623 29.2965C194.575 27.8949 194.469 26.3414 194.304 24.6361C194.19 23.2657 194.046 21.8501 193.871 20.3892C194.364 20.4321 194.78 20.4694 195.119 20.5013C195.638 20.5247 196.146 20.5364 196.642 20.5364C198.294 20.5364 199.676 20.4079 200.786 20.1509C201.895 19.894 203.017 19.4969 204.15 18.9596L203.194 14.7197C202.604 15.0234 202.014 15.2803 201.423 15.4906C201.066 15.6232 200.647 15.7511 200.168 15.8745C199.904 15.7131 199.661 15.5151 199.44 15.2803C199.133 14.9299 198.979 14.4978 198.979 13.9838C198.979 13.5867 199.109 13.3064 199.369 13.1429C199.629 12.956 199.947 12.8625 200.325 12.8625C200.609 12.8625 200.916 12.8859 201.246 12.9326C201.6 12.9793 201.919 13.0377 202.202 13.1078L202.486 9.21833C202.179 9.10153 201.742 9.00809 201.175 8.93801C200.632 8.84456 200.16 8.79784 199.758 8.79784C198.035 8.79784 196.724 9.20665 195.827 10.0243C194.93 10.8185 194.481 11.7996 194.481 12.9677C194.481 13.832 194.634 14.5678 194.941 15.1752C195.135 15.5434 195.361 15.8698 195.621 16.1544C195.277 16.1355 194.944 16.1127 194.623 16.0863C194.151 16.0457 193.689 15.9964 193.236 15.9383C193.116 15.2366 192.988 14.5384 192.852 13.8437C192.521 12.0449 192.12 10.363 191.647 8.79784L186.795 10.1294C187.196 11.6244 187.562 13.248 187.893 15C188.224 16.7287 188.507 18.4924 188.743 20.2911C189.003 22.0665 189.215 23.7835 189.381 25.442C189.569 27.0773 189.711 28.549 189.806 29.8571C189.9 31.142 189.947 32.1581 189.947 32.9057Z" fill="#E53E3E"/>
<path d="M209.909 24.6361C210.334 25.0566 210.806 25.5588 211.325 26.1429L215.115 22.3935C214.549 21.7161 213.887 21.0036 213.132 20.2561C212.4 19.5085 211.621 18.8311 210.794 18.2237L207.146 22.1132C207.713 22.5571 208.209 22.9775 208.634 23.3747C209.059 23.7718 209.484 24.1923 209.909 24.6361Z" fill="#E53E3E"/>
<path d="M221.977 32.9057L226.9 32.7655C226.9 31.8544 226.865 30.6981 226.794 29.2965C226.747 27.8949 226.641 26.3414 226.475 24.6361C226.334 22.9308 226.145 21.1554 225.909 19.31C225.672 17.4645 225.377 15.6424 225.023 13.8437C224.692 12.0449 224.291 10.363 223.819 8.79784L218.825 10.1294C219.155 11.3675 219.462 12.699 219.746 14.124C220.029 15.549 220.289 17.009 220.525 18.504C220.761 19.9991 220.962 21.4708 221.127 22.9191C221.316 24.3441 221.469 25.699 221.587 26.9838C221.729 28.2686 221.823 29.425 221.871 30.4528C221.942 31.4573 221.977 32.2749 221.977 32.9057Z" fill="#E53E3E"/>
<defs>
<linearGradient id="paint0_linear_50_864" x1="180" y1="31.5217" x2="78.5" y2="44.5217" gradientUnits="userSpaceOnUse">
<stop stop-color="#E53E3E"/>
<stop offset="1" stop-color="#E53E3E" stop-opacity="0"/>
</linearGradient>
</defs>
</svg>
