<svg width="359" height="61" viewBox="0 0 359 61" fill="none" xmlns="http://www.w3.org/2000/svg">
<path d="M283.522 13.3481L286.92 47.2852C287.213 50.2068 291.336 50.5491 292.106 47.7159L293.437 42.8246C293.645 42.0565 294.343 41.5234 295.139 41.5234H296.387L297.312 39.9159C297.767 39.1263 298.861 39.0134 299.468 39.6935C300.155 40.4648 301.139 40.906 302.173 40.906L378 40.906V37.3778L302.173 37.3778C302.145 37.3778 302.119 37.3661 302.101 37.3457C299.918 34.8973 295.999 35.272 294.311 38.06C292.279 38.3808 290.585 39.8652 290.032 41.8988L289.955 42.1822L285.983 2.51905C285.66 -0.70981 280.929 -0.632969 280.71 2.60463L277.49 50.3534L277.201 48.4895C276.682 45.1476 274.597 42.2549 271.591 40.7053L270.379 40.0803C269.627 39.6928 269.039 39.048 268.723 38.2635L267.68 35.6773C266.395 32.4898 262.12 31.9319 260.06 34.683L258.042 37.3778H240.161V32.8124C240.161 31.7927 240.431 30.943 240.971 30.2633C241.531 29.5835 242.401 29.1836 243.58 29.0637L244.48 28.9737C245.16 28.8937 245.629 28.7238 245.889 28.4639C246.149 28.204 246.279 27.8041 246.279 27.2643C246.279 26.7445 246.129 26.3546 245.829 26.0947C245.53 25.8348 245.12 25.7249 244.6 25.7649L244.18 25.7948C243.26 25.8548 242.421 26.1247 241.661 26.6046C240.921 27.0844 240.361 27.7641 239.981 28.6438V27.4443C239.981 26.9044 239.822 26.4946 239.502 26.2147C239.182 25.9148 238.762 25.7649 238.242 25.7649C237.722 25.7649 237.282 25.9148 236.923 26.2147C236.583 26.5146 236.413 26.9444 236.413 27.5042V39.1101C236.413 39.6899 236.583 40.1398 236.923 40.4596C237.282 40.7595 237.732 40.9095 238.272 40.9095C238.32 40.9095 238.367 40.9083 238.413 40.906H259.808L262.884 36.7977C263.296 36.2474 264.151 36.359 264.408 36.9965L265.451 39.5827C266.083 41.1517 267.258 42.4412 268.762 43.2164L269.974 43.8414C271.979 44.8744 273.368 46.8029 273.714 49.0308L275.221 58.7371C275.706 61.8574 280.264 61.6598 280.476 58.5092L283.522 13.3481Z" fill="url(#paint0_linear_38_1310)"/>
<path d="M22.0007 40.9095C21.4609 40.9095 21.0111 40.7595 20.6512 40.4596C20.3113 40.1398 20.1414 39.6899 20.1414 39.1101V21.2065C20.1414 20.6267 20.3113 20.1868 20.6512 19.8869C21.0111 19.587 21.4609 19.4371 22.0007 19.4371C22.5405 19.4371 22.9904 19.587 23.3502 19.8869C23.7101 20.1868 23.8901 20.6267 23.8901 21.2065V39.1101C23.8901 39.6899 23.7101 40.1398 23.3502 40.4596C22.9904 40.7595 22.5405 40.9095 22.0007 40.9095Z" fill="url(#paint1_linear_38_1310)"/>
<path fill-rule="evenodd" clip-rule="evenodd" d="M13.0154 29.8134C14.235 30.1533 15.1746 30.7731 15.8344 31.6728C16.5142 32.5724 16.854 33.6721 16.854 34.9716C16.854 36.771 16.2043 38.1805 14.9047 39.2001C13.6252 40.2197 11.8558 40.7296 9.5966 40.7296H1.85934C1.27955 40.7296 0.81971 40.5696 0.47983 40.2497C0.159943 39.9298 0 39.48 0 38.9002V21.4164C0 20.8366 0.159943 20.3868 0.47983 20.0669C0.81971 19.747 1.27955 19.587 1.85934 19.587H9.29671C11.4959 19.587 13.2153 20.0769 14.4549 21.0565C15.7144 22.0162 16.3442 23.3657 16.3442 25.1051C16.3442 26.2247 16.0443 27.1943 15.4445 28.0141C14.8647 28.8338 14.055 29.4336 13.0154 29.8134ZM3.77866 28.4939H8.66693C11.326 28.4939 12.6555 27.5042 12.6555 25.5249C12.6555 24.5253 12.3256 23.7856 11.6659 23.3057C11.0061 22.8259 10.0065 22.586 8.66693 22.586H3.77866V28.4939ZM9.17675 37.7306C10.5763 37.7306 11.5959 37.4807 12.2357 36.9809C12.8754 36.4811 13.1953 35.7013 13.1953 34.6417C13.1953 33.5821 12.8654 32.7924 12.2057 32.2726C11.5659 31.7527 10.5563 31.4928 9.17675 31.4928H3.77866V37.7306H9.17675Z" fill="url(#paint2_linear_38_1310)"/>
<path fill-rule="evenodd" clip-rule="evenodd" d="M30.4849 40.0398C31.6245 40.6596 32.944 40.9695 34.4435 40.9695C35.943 40.9695 37.2525 40.6596 38.3721 40.0398C39.5117 39.42 40.3814 38.5303 40.9812 37.3707C41.601 36.2112 41.9109 34.8616 41.9109 33.3222C41.9109 31.7827 41.601 30.4432 40.9812 29.3036C40.3814 28.144 39.5117 27.2543 38.3721 26.6345C37.2525 26.0148 35.943 25.7049 34.4435 25.7049C32.944 25.7049 31.6245 26.0148 30.4849 26.6345C29.3653 27.2543 28.4956 28.144 27.8758 29.3036C27.2561 30.4432 26.9462 31.7827 26.9462 33.3222C26.9462 34.8616 27.2561 36.2112 27.8758 37.3707C28.4956 38.5303 29.3653 39.42 30.4849 40.0398ZM37.2025 36.8609C36.5628 37.6606 35.6331 38.0605 34.4135 38.0605C33.2139 38.0605 32.2943 37.6606 31.6545 36.8609C31.0147 36.0612 30.6948 34.8816 30.6948 33.3222C30.6948 31.7827 31.0147 30.6131 31.6545 29.8134C32.3143 28.9937 33.2439 28.5839 34.4435 28.5839C35.6431 28.5839 36.5628 28.9937 37.2025 29.8134C37.8423 30.6131 38.1622 31.7827 38.1622 33.3222C38.1622 34.8816 37.8423 36.0612 37.2025 36.8609Z" fill="url(#paint3_linear_38_1310)"/>
<path fill-rule="evenodd" clip-rule="evenodd" d="M51.6933 40.9695C50.1938 40.9695 48.8743 40.6596 47.7347 40.0398C46.6151 39.42 45.7454 38.5303 45.1256 37.3707C44.5058 36.2112 44.1959 34.8616 44.1959 33.3222C44.1959 31.7827 44.5058 30.4432 45.1256 29.3036C45.7454 28.144 46.6151 27.2543 47.7347 26.6345C48.8743 26.0148 50.1938 25.7049 51.6933 25.7049C53.1927 25.7049 54.5023 26.0148 55.6219 26.6345C56.7615 27.2543 57.6312 28.144 58.2309 29.3036C58.8507 30.4432 59.1606 31.7827 59.1606 33.3222C59.1606 34.8616 58.8507 36.2112 58.2309 37.3707C57.6312 38.5303 56.7615 39.42 55.6219 40.0398C54.5023 40.6596 53.1927 40.9695 51.6933 40.9695ZM51.6633 38.0605C52.8828 38.0605 53.8125 37.6606 54.4523 36.8609C55.092 36.0612 55.4119 34.8816 55.4119 33.3222C55.4119 31.7827 55.092 30.6131 54.4523 29.8134C53.8125 28.9937 52.8928 28.5839 51.6933 28.5839C50.4937 28.5839 49.564 28.9937 48.9042 29.8134C48.2645 30.6131 47.9446 31.7827 47.9446 33.3222C47.9446 34.8816 48.2645 36.0612 48.9042 36.8609C49.544 37.6606 50.4637 38.0605 51.6633 38.0605Z" fill="url(#paint4_linear_38_1310)"/>
<path fill-rule="evenodd" clip-rule="evenodd" d="M75.8706 19.9169C75.5107 19.597 75.0508 19.4371 74.491 19.4371C73.9312 19.4371 73.4814 19.597 73.1415 19.9169C72.8216 20.2168 72.6617 20.6167 72.6617 21.1165V28.224C72.2218 27.4243 71.5921 26.8045 70.7724 26.3646C69.9526 25.9248 69.013 25.7049 67.9534 25.7049C66.6738 25.7049 65.5442 26.0148 64.5646 26.6345C63.5849 27.2543 62.8152 28.134 62.2554 29.2736C61.7156 30.4132 61.4457 31.7427 61.4457 33.2622C61.4457 34.7817 61.7156 36.1312 62.2554 37.3108C62.8152 38.4704 63.5849 39.37 64.5646 40.0098C65.5642 40.6496 66.6938 40.9695 67.9534 40.9695C69.013 40.9695 69.9526 40.7396 70.7724 40.2797C71.6121 39.8199 72.2518 39.1801 72.6917 38.3604V39.1101C72.6917 39.6499 72.8616 40.0798 73.2015 40.3997C73.5414 40.7196 73.9912 40.8795 74.551 40.8795C75.1108 40.8795 75.5607 40.7196 75.9005 40.3997C76.2404 40.0798 76.4104 39.6499 76.4104 39.1101V21.1765C76.4104 20.6567 76.2304 20.2368 75.8706 19.9169ZM71.702 36.8309C71.0623 37.6506 70.1426 38.0605 68.943 38.0605C67.7634 38.0605 66.8438 37.6406 66.184 36.8009C65.5242 35.9612 65.1943 34.7817 65.1943 33.2622C65.1943 31.7627 65.5242 30.6131 66.184 29.8134C66.8438 29.0137 67.7734 28.6138 68.973 28.6138C70.1526 28.6138 71.0623 29.0237 71.702 29.8434C72.3618 30.6431 72.6917 31.8027 72.6917 33.3222C72.6917 34.8416 72.3618 36.0112 71.702 36.8309Z" fill="url(#paint5_linear_38_1310)"/>
<path d="M90.493 26.8445C90.6529 26.4846 90.8628 26.2247 91.1227 26.0647C91.4026 25.8848 91.7025 25.7948 92.0224 25.7948C92.4823 25.7948 92.8921 25.9548 93.252 26.2747C93.6318 26.5746 93.8218 26.9544 93.8218 27.4143C93.8218 27.6342 93.7618 27.8641 93.6418 28.104L85.4547 45.258C85.1149 45.9377 84.585 46.2776 83.8653 46.2776C83.4055 46.2776 82.9956 46.1276 82.6357 45.8278C82.2959 45.5479 82.1259 45.188 82.1259 44.7481C82.1259 44.5282 82.1859 44.2783 82.3059 43.9984L84.3451 39.7099L78.7671 28.104C78.6671 27.9041 78.6172 27.6742 78.6172 27.4143C78.6172 26.9544 78.8071 26.5646 79.187 26.2447C79.5868 25.9248 80.0367 25.7649 80.5365 25.7649C80.8764 25.7649 81.1862 25.8548 81.4661 26.0348C81.7461 26.1947 81.966 26.4546 82.1259 26.8145L86.3244 36.0812L90.493 26.8445Z" fill="url(#paint6_linear_38_1310)"/>
<path d="M123.049 19.9769C122.729 19.617 122.289 19.4371 121.729 19.4371C121.189 19.4371 120.749 19.617 120.41 19.9769C120.09 20.3168 119.93 20.7766 119.93 21.3564V34.3118L109.014 20.1269C108.674 19.667 108.194 19.4371 107.574 19.4371C107.014 19.4371 106.565 19.617 106.225 19.9769C105.885 20.3168 105.715 20.7766 105.715 21.3564V38.9602C105.715 39.54 105.875 40.0098 106.195 40.3697C106.515 40.7296 106.954 40.9095 107.514 40.9095C108.074 40.9095 108.514 40.7296 108.834 40.3697C109.154 40.0098 109.314 39.54 109.314 38.9602V25.9748L120.26 40.2197C120.6 40.6796 121.089 40.9095 121.729 40.9095C122.269 40.9095 122.709 40.7296 123.049 40.3697C123.389 40.0098 123.558 39.54 123.558 38.9602V21.3564C123.558 20.7766 123.389 20.3168 123.049 19.9769Z" fill="url(#paint7_linear_38_1310)"/>
<path fill-rule="evenodd" clip-rule="evenodd" d="M134.477 40.9695C132.977 40.9695 131.658 40.6596 130.518 40.0398C129.399 39.42 128.529 38.5303 127.909 37.3707C127.289 36.2112 126.979 34.8616 126.979 33.3222C126.979 31.7827 127.289 30.4432 127.909 29.3036C128.529 28.144 129.399 27.2543 130.518 26.6345C131.658 26.0148 132.977 25.7049 134.477 25.7049C135.976 25.7049 137.286 26.0148 138.405 26.6345C139.545 27.2543 140.415 28.144 141.014 29.3036C141.634 30.4432 141.944 31.7827 141.944 33.3222C141.944 34.8616 141.634 36.2112 141.014 37.3707C140.415 38.5303 139.545 39.42 138.405 40.0398C137.286 40.6596 135.976 40.9695 134.477 40.9695ZM134.447 38.0605C135.666 38.0605 136.596 37.6606 137.236 36.8609C137.876 36.0612 138.195 34.8816 138.195 33.3222C138.195 31.7827 137.876 30.6131 137.236 29.8134C136.596 28.9937 135.676 28.5839 134.477 28.5839C133.277 28.5839 132.347 28.9937 131.688 29.8134C131.048 30.6131 130.728 31.7827 130.728 33.3222C130.728 34.8816 131.048 36.0612 131.688 36.8609C132.327 37.6606 133.247 38.0605 134.447 38.0605Z" fill="url(#paint8_linear_38_1310)"/>
<path d="M155.661 26.0348C155.401 26.2147 155.191 26.4846 155.031 26.8445L150.862 36.0812L146.664 26.8145C146.324 26.1147 145.794 25.7649 145.074 25.7649C144.575 25.7649 144.125 25.9248 143.725 26.2447C143.345 26.5646 143.155 26.9544 143.155 27.4143C143.155 27.6742 143.205 27.9041 143.305 28.104L148.883 39.7099C149.063 40.0898 149.323 40.3797 149.663 40.5796C150.023 40.7795 150.393 40.8795 150.772 40.8795C151.172 40.8795 151.532 40.7795 151.852 40.5796C152.192 40.3797 152.452 40.0898 152.632 39.7099L158.18 28.104C158.3 27.8641 158.36 27.6242 158.36 27.3843C158.36 26.9244 158.17 26.5446 157.79 26.2447C157.43 25.9248 157.02 25.7649 156.56 25.7649C156.241 25.7649 155.941 25.8548 155.661 26.0348Z" fill="url(#paint9_linear_38_1310)"/>
<path fill-rule="evenodd" clip-rule="evenodd" d="M171.962 36.711C172.301 36.711 172.571 36.8409 172.771 37.1008C172.991 37.3607 173.101 37.7106 173.101 38.1505C173.101 38.7703 172.731 39.2901 171.992 39.7099C171.312 40.0898 170.542 40.3997 169.682 40.6396C168.823 40.8595 168.003 40.9695 167.223 40.9695C164.864 40.9695 162.995 40.2897 161.615 38.9302C160.236 37.5707 159.546 35.7113 159.546 33.3522C159.546 31.8527 159.846 30.5232 160.446 29.3636C161.045 28.204 161.885 27.3043 162.965 26.6645C164.064 26.0248 165.304 25.7049 166.683 25.7049C168.003 25.7049 169.153 25.9948 170.132 26.5746C171.112 27.1544 171.872 27.9741 172.411 29.0337C172.951 30.0933 173.221 31.3429 173.221 32.7824C173.221 33.6421 172.841 34.0719 172.082 34.0719H163.235C163.355 35.4514 163.744 36.4711 164.404 37.1308C165.064 37.7706 166.024 38.0905 167.283 38.0905C167.923 38.0905 168.483 38.0105 168.963 37.8506C169.462 37.6906 170.022 37.4707 170.642 37.1908C171.242 36.8709 171.682 36.711 171.962 36.711ZM166.773 28.3439C165.754 28.3439 164.934 28.6638 164.314 29.3036C163.715 29.9434 163.355 30.8631 163.235 32.0626H170.012C169.972 30.8431 169.672 29.9234 169.113 29.3036C168.553 28.6638 167.773 28.3439 166.773 28.3439Z" fill="url(#paint10_linear_38_1310)"/>
<path d="M197.37 27.1444C196.53 26.1847 195.311 25.7049 193.711 25.7049C192.632 25.7049 191.662 25.9548 190.802 26.4546C189.943 26.9544 189.293 27.6242 188.853 28.4639C188.113 26.6245 186.644 25.7049 184.445 25.7049C183.445 25.7049 182.555 25.9148 181.776 26.3347C181.016 26.7545 180.406 27.3643 179.946 28.164V27.4443C179.946 26.9044 179.776 26.4946 179.436 26.2147C179.117 25.9148 178.697 25.7649 178.177 25.7649C177.637 25.7649 177.187 25.9148 176.827 26.2147C176.467 26.5146 176.288 26.9444 176.288 27.5042V39.1101C176.288 39.6899 176.457 40.1398 176.797 40.4596C177.157 40.7595 177.607 40.9095 178.147 40.9095C178.687 40.9095 179.137 40.7595 179.496 40.4596C179.856 40.1398 180.036 39.6899 180.036 39.1101V32.4225C180.036 31.2629 180.316 30.3532 180.876 29.6935C181.456 29.0137 182.235 28.6738 183.215 28.6738C184.015 28.6738 184.605 28.9137 184.984 29.3936C185.384 29.8534 185.584 30.6331 185.584 31.7327V39.1101C185.584 39.6899 185.764 40.1398 186.124 40.4596C186.484 40.7595 186.934 40.9095 187.474 40.9095C188.013 40.9095 188.453 40.7595 188.793 40.4596C189.153 40.1398 189.333 39.6899 189.333 39.1101V32.4225C189.333 31.2629 189.623 30.3532 190.203 29.6935C190.782 29.0137 191.562 28.6738 192.542 28.6738C193.341 28.6738 193.931 28.9137 194.311 29.3936C194.711 29.8534 194.911 30.6331 194.911 31.7327V39.1101C194.911 39.6899 195.081 40.1398 195.421 40.4596C195.781 40.7595 196.23 40.9095 196.77 40.9095C197.33 40.9095 197.78 40.7595 198.12 40.4596C198.48 40.1398 198.66 39.6899 198.66 39.1101V31.7327C198.66 29.6135 198.23 28.084 197.37 27.1444Z" fill="url(#paint11_linear_38_1310)"/>
<path fill-rule="evenodd" clip-rule="evenodd" d="M210.897 25.7049C212.176 25.7049 213.306 26.0148 214.285 26.6345C215.265 27.2543 216.025 28.134 216.565 29.2736C217.124 30.4132 217.404 31.7427 217.404 33.2622C217.404 34.7817 217.124 36.1312 216.565 37.3108C216.025 38.4704 215.255 39.37 214.256 40.0098C213.276 40.6496 212.156 40.9695 210.897 40.9695C209.837 40.9695 208.887 40.7396 208.048 40.2797C207.228 39.8199 206.598 39.1801 206.158 38.3604V39.1101C206.158 39.6499 205.988 40.0798 205.649 40.3997C205.309 40.7196 204.859 40.8795 204.299 40.8795C203.739 40.8795 203.289 40.7196 202.95 40.3997C202.63 40.0798 202.47 39.6499 202.47 39.1101V21.1765C202.47 20.6567 202.64 20.2368 202.979 19.9169C203.339 19.597 203.799 19.4371 204.359 19.4371C204.919 19.4371 205.369 19.587 205.709 19.8869C206.048 20.1868 206.218 20.5967 206.218 21.1165V28.194C206.658 27.3943 207.288 26.7845 208.108 26.3646C208.927 25.9248 209.857 25.7049 210.897 25.7049ZM209.907 38.0605C211.087 38.0605 212.006 37.6406 212.666 36.8009C213.326 35.9612 213.656 34.7817 213.656 33.2622C213.656 31.7627 213.326 30.6131 212.666 29.8134C212.026 29.0137 211.107 28.6138 209.907 28.6138C208.707 28.6138 207.778 29.0237 207.118 29.8434C206.478 30.6431 206.158 31.8027 206.158 33.3222C206.158 34.8416 206.478 36.0112 207.118 36.8309C207.778 37.6506 208.707 38.0605 209.907 38.0605Z" fill="url(#paint12_linear_38_1310)"/>
<path fill-rule="evenodd" clip-rule="evenodd" d="M232.896 37.1008C232.697 36.8409 232.427 36.711 232.087 36.711C231.807 36.711 231.367 36.8709 230.767 37.1908C230.147 37.4707 229.588 37.6906 229.088 37.8506C228.608 38.0105 228.048 38.0905 227.408 38.0905C226.149 38.0905 225.189 37.7706 224.529 37.1308C223.87 36.4711 223.48 35.4514 223.36 34.0719H232.207C232.966 34.0719 233.346 33.6421 233.346 32.7824C233.346 31.3429 233.076 30.0933 232.537 29.0337C231.997 27.9741 231.237 27.1544 230.257 26.5746C229.278 25.9948 228.128 25.7049 226.809 25.7049C225.429 25.7049 224.19 26.0248 223.09 26.6645C222.01 27.3043 221.171 28.204 220.571 29.3636C219.971 30.5232 219.671 31.8527 219.671 33.3522C219.671 35.7113 220.361 37.5707 221.74 38.9302C223.12 40.2897 224.989 40.9695 227.348 40.9695C228.128 40.9695 228.948 40.8595 229.808 40.6396C230.667 40.3997 231.437 40.0898 232.117 39.7099C232.856 39.2901 233.226 38.7703 233.226 38.1505C233.226 37.7106 233.116 37.3607 232.896 37.1008ZM224.439 29.3036C225.059 28.6638 225.879 28.3439 226.899 28.3439C227.898 28.3439 228.678 28.6638 229.238 29.3036C229.798 29.9234 230.097 30.8431 230.137 32.0626H223.36C223.48 30.8631 223.84 29.9434 224.439 29.3036Z" fill="url(#paint13_linear_38_1310)"/>
<defs>
<linearGradient id="paint0_linear_38_1310" x1="229.817" y1="42.0531" x2="265.887" y2="98.5125" gradientUnits="userSpaceOnUse">
<stop stop-color="#E53E3E"/>
<stop offset="1" stop-color="#E53E3E" stop-opacity="0"/>
</linearGradient>
<linearGradient id="paint1_linear_38_1310" x1="229.817" y1="42.0531" x2="265.887" y2="98.5125" gradientUnits="userSpaceOnUse">
<stop stop-color="#E53E3E"/>
<stop offset="1" stop-color="#E53E3E" stop-opacity="0"/>
</linearGradient>
<linearGradient id="paint2_linear_38_1310" x1="229.817" y1="42.0531" x2="265.887" y2="98.5125" gradientUnits="userSpaceOnUse">
<stop stop-color="#E53E3E"/>
<stop offset="1" stop-color="#E53E3E" stop-opacity="0"/>
</linearGradient>
<linearGradient id="paint3_linear_38_1310" x1="229.817" y1="42.0531" x2="265.887" y2="98.5125" gradientUnits="userSpaceOnUse">
<stop stop-color="#E53E3E"/>
<stop offset="1" stop-color="#E53E3E" stop-opacity="0"/>
</linearGradient>
<linearGradient id="paint4_linear_38_1310" x1="229.817" y1="42.0531" x2="265.887" y2="98.5125" gradientUnits="userSpaceOnUse">
<stop stop-color="#E53E3E"/>
<stop offset="1" stop-color="#E53E3E" stop-opacity="0"/>
</linearGradient>
<linearGradient id="paint5_linear_38_1310" x1="229.817" y1="42.0531" x2="265.887" y2="98.5125" gradientUnits="userSpaceOnUse">
<stop stop-color="#E53E3E"/>
<stop offset="1" stop-color="#E53E3E" stop-opacity="0"/>
</linearGradient>
<linearGradient id="paint6_linear_38_1310" x1="229.817" y1="42.0531" x2="265.887" y2="98.5125" gradientUnits="userSpaceOnUse">
<stop stop-color="#E53E3E"/>
<stop offset="1" stop-color="#E53E3E" stop-opacity="0"/>
</linearGradient>
<linearGradient id="paint7_linear_38_1310" x1="229.817" y1="42.0531" x2="265.887" y2="98.5125" gradientUnits="userSpaceOnUse">
<stop stop-color="#E53E3E"/>
<stop offset="1" stop-color="#E53E3E" stop-opacity="0"/>
</linearGradient>
<linearGradient id="paint8_linear_38_1310" x1="229.817" y1="42.0531" x2="265.887" y2="98.5125" gradientUnits="userSpaceOnUse">
<stop stop-color="#E53E3E"/>
<stop offset="1" stop-color="#E53E3E" stop-opacity="0"/>
</linearGradient>
<linearGradient id="paint9_linear_38_1310" x1="229.817" y1="42.0531" x2="265.887" y2="98.5125" gradientUnits="userSpaceOnUse">
<stop stop-color="#E53E3E"/>
<stop offset="1" stop-color="#E53E3E" stop-opacity="0"/>
</linearGradient>
<linearGradient id="paint10_linear_38_1310" x1="229.817" y1="42.0531" x2="265.887" y2="98.5125" gradientUnits="userSpaceOnUse">
<stop stop-color="#E53E3E"/>
<stop offset="1" stop-color="#E53E3E" stop-opacity="0"/>
</linearGradient>
<linearGradient id="paint11_linear_38_1310" x1="229.817" y1="42.0531" x2="265.887" y2="98.5125" gradientUnits="userSpaceOnUse">
<stop stop-color="#E53E3E"/>
<stop offset="1" stop-color="#E53E3E" stop-opacity="0"/>
</linearGradient>
<linearGradient id="paint12_linear_38_1310" x1="229.817" y1="42.0531" x2="265.887" y2="98.5125" gradientUnits="userSpaceOnUse">
<stop stop-color="#E53E3E"/>
<stop offset="1" stop-color="#E53E3E" stop-opacity="0"/>
</linearGradient>
<linearGradient id="paint13_linear_38_1310" x1="229.817" y1="42.0531" x2="265.887" y2="98.5125" gradientUnits="userSpaceOnUse">
<stop stop-color="#E53E3E"/>
<stop offset="1" stop-color="#E53E3E" stop-opacity="0"/>
</linearGradient>
</defs>
</svg>
