<svg width="326" height="69" viewBox="0 0 326 69" fill="none" xmlns="http://www.w3.org/2000/svg">
<path d="M177.884 37.0697C177.884 36.2764 177.986 35.2904 178.19 34.1117C178.417 32.9104 178.904 31.4824 179.652 29.8277L183.834 31.2897C183.449 32.3551 183.154 33.2731 182.95 34.0437C182.746 34.7917 182.644 35.5284 182.644 36.2537C182.644 37.2737 182.871 38.1464 183.324 38.8717C183.8 39.5971 184.491 40.1524 185.398 40.5377C186.327 40.9231 187.461 41.1157 188.798 41.1157C190.158 41.1157 191.291 40.9684 192.198 40.6737C193.105 40.3791 193.819 39.9597 194.34 39.4157C194.861 38.8944 195.235 38.2824 195.462 37.5797C195.689 36.8771 195.802 36.1177 195.802 35.3017C195.802 34.6671 195.723 33.9531 195.564 33.1597C195.428 32.3664 195.224 31.5051 194.952 30.5757C194.68 29.6237 194.374 28.6264 194.034 27.5837L198.794 26.3597C199.021 27.2211 199.202 27.9577 199.338 28.5697C199.497 29.1817 199.633 29.6917 199.746 30.0997C199.859 30.4851 199.95 30.8024 200.018 31.0517C200.245 31.7317 200.551 32.2417 200.936 32.5817C201.321 32.9217 201.82 33.1484 202.432 33.2617C203.067 33.3751 203.826 33.4317 204.71 33.4317C205.571 33.4317 206.183 33.6584 206.546 34.1117C206.909 34.5424 207.09 35.0864 207.09 35.7437C207.09 36.4464 206.852 37.0357 206.376 37.5117C205.9 37.9651 205.231 38.1917 204.37 38.1917C203.599 38.1917 202.829 38.0897 202.058 37.8857C201.31 37.6591 200.664 37.2964 200.12 36.7977C199.576 36.2991 199.225 35.6304 199.066 34.7917L200.324 36.1517C200.279 37.6931 199.973 39.0644 199.406 40.2657C198.839 41.4671 198.046 42.4871 197.026 43.3257C196.029 44.1644 194.816 44.7991 193.388 45.2297C191.983 45.6604 190.407 45.8757 188.662 45.8757C187.143 45.8757 185.727 45.7057 184.412 45.3657C183.12 45.0484 181.975 44.5271 180.978 43.8017C180.003 43.0991 179.244 42.1924 178.7 41.0817C178.156 39.9711 177.884 38.6337 177.884 37.0697ZM188.968 24.1497C188.265 24.1497 187.665 23.9117 187.166 23.4357C186.69 22.9597 186.452 22.3704 186.452 21.6677C186.452 20.9651 186.69 20.3644 187.166 19.8657C187.665 19.3671 188.265 19.1177 188.968 19.1177C189.648 19.1177 190.226 19.3671 190.702 19.8657C191.201 20.3644 191.45 20.9651 191.45 21.6677C191.45 22.3704 191.201 22.9597 190.702 23.4357C190.226 23.9117 189.648 24.1497 188.968 24.1497Z" fill="#E53E3E"/>
<path d="M204.359 38.1917L204.699 33.4317C205.515 33.4317 206.218 33.3524 206.807 33.1937C207.397 33.0351 207.895 32.7177 208.303 32.2417C208.711 31.7431 209.051 31.0177 209.323 30.0657C209.618 29.1137 209.879 27.8444 210.105 26.2577L214.559 27.0057C214.514 27.3457 214.446 27.7424 214.355 28.1957C214.287 28.6491 214.219 29.1137 214.151 29.5897C214.106 30.0431 214.083 30.4737 214.083 30.8817C214.083 31.2897 214.163 31.6524 214.321 31.9697C214.48 32.2871 214.729 32.5591 215.069 32.7857C215.432 32.9897 215.897 33.1484 216.463 33.2617C217.053 33.3751 217.767 33.4317 218.605 33.4317C219.467 33.4317 220.079 33.6584 220.441 34.1117C220.804 34.5424 220.985 35.0864 220.985 35.7437C220.985 36.4464 220.747 37.0357 220.271 37.5117C219.818 37.9651 219.149 38.1917 218.265 38.1917C217.245 38.1917 216.316 38.1124 215.477 37.9537C214.661 37.7951 213.947 37.5344 213.335 37.1717C212.746 36.7864 212.259 36.2877 211.873 35.6757C211.511 35.0411 211.284 34.2704 211.193 33.3637H212.825C212.417 34.4517 211.896 35.3244 211.261 35.9817C210.649 36.6164 209.958 37.0924 209.187 37.4097C208.417 37.7271 207.612 37.9311 206.773 38.0217C205.957 38.1351 205.153 38.1917 204.359 38.1917ZM213.845 46.0797C213.188 46.0797 212.621 45.8417 212.145 45.3657C211.692 44.9124 211.465 44.3684 211.465 43.7337C211.465 43.0764 211.692 42.5097 212.145 42.0337C212.621 41.5577 213.188 41.3197 213.845 41.3197C214.48 41.3197 215.024 41.5577 215.477 42.0337C215.931 42.5097 216.157 43.0764 216.157 43.7337C216.157 44.3684 215.931 44.9124 215.477 45.3657C215.024 45.8417 214.48 46.0797 213.845 46.0797ZM207.963 46.0797C207.306 46.0797 206.739 45.8417 206.263 45.3657C205.81 44.9124 205.583 44.3684 205.583 43.7337C205.583 43.0764 205.81 42.5097 206.263 42.0337C206.739 41.5577 207.306 41.3197 207.963 41.3197C208.598 41.3197 209.142 41.5577 209.595 42.0337C210.049 42.5097 210.275 43.0764 210.275 43.7337C210.275 44.3684 210.049 44.9124 209.595 45.3657C209.142 45.8417 208.598 46.0797 207.963 46.0797Z" fill="#E53E3E"/>
<path d="M218.271 38.1917L218.611 33.4317C219.609 33.4317 220.391 33.3637 220.957 33.2277C221.547 33.0917 221.966 32.8424 222.215 32.4797C222.465 32.0944 222.589 31.5504 222.589 30.8477C222.589 30.2131 222.499 29.4537 222.317 28.5697C222.159 27.6857 221.943 26.7677 221.671 25.8157C221.399 24.8637 221.127 23.9911 220.855 23.1977L225.547 21.9057C225.819 22.6764 226.091 23.5717 226.363 24.5917C226.635 25.6117 226.862 26.6657 227.043 27.7537C227.247 28.8191 227.349 29.8504 227.349 30.8477C227.349 32.0944 227.191 33.1484 226.873 34.0097C226.556 34.8484 226.114 35.5511 225.547 36.1177C225.003 36.6617 224.346 37.0924 223.575 37.4097C222.827 37.7044 222 37.9084 221.093 38.0217C220.187 38.1351 219.246 38.1917 218.271 38.1917ZM223.167 19.0837C222.465 19.0837 221.864 18.8457 221.365 18.3697C220.889 17.8937 220.651 17.3044 220.651 16.6017C220.651 15.8991 220.889 15.2984 221.365 14.7997C221.864 14.3011 222.465 14.0517 223.167 14.0517C223.847 14.0517 224.425 14.3011 224.901 14.7997C225.4 15.2984 225.649 15.8991 225.649 16.6017C225.649 17.3044 225.4 17.8937 224.901 18.3697C224.425 18.8457 223.847 19.0837 223.167 19.0837Z" fill="#E53E3E"/>
<path d="M231 45.8417L230.014 41.0817C231.624 40.8777 233.029 40.6284 234.23 40.3337C235.432 40.0617 236.44 39.6764 237.256 39.1777C238.072 38.6791 238.684 37.9991 239.092 37.1377C239.5 36.2537 239.704 35.1204 239.704 33.7377C239.704 32.4004 239.5 31.3351 239.092 30.5417C238.684 29.7484 238.14 29.3517 237.46 29.3517C236.984 29.3517 236.588 29.5217 236.27 29.8617C235.953 30.1791 235.715 30.5644 235.556 31.0177C235.42 31.4484 235.352 31.8337 235.352 32.1737C235.352 32.3777 235.409 32.5931 235.522 32.8197C235.636 33.0464 235.885 33.2391 236.27 33.3977C236.656 33.5564 237.256 33.6471 238.072 33.6697C238.911 33.6924 240.044 33.6131 241.472 33.4317H247.184C248.046 33.4317 248.658 33.6584 249.02 34.1117C249.406 34.5424 249.598 35.0864 249.598 35.7437C249.598 36.4464 249.36 37.0357 248.884 37.5117C248.408 37.9651 247.728 38.1917 246.844 38.1917H237.494C236.066 38.1917 234.842 38.0217 233.822 37.6817C232.802 37.3417 232.02 36.7977 231.476 36.0497C230.932 35.2791 230.66 34.2591 230.66 32.9897C230.66 31.9697 230.83 30.9497 231.17 29.9297C231.533 28.9097 232.032 27.9804 232.666 27.1417C233.301 26.2804 234.038 25.6004 234.876 25.1017C235.738 24.5804 236.667 24.3197 237.664 24.3197C239.024 24.3197 240.214 24.7391 241.234 25.5777C242.254 26.4164 243.048 27.5271 243.614 28.9097C244.204 30.2924 244.498 31.7997 244.498 33.4317C244.498 35.9931 243.954 38.1691 242.866 39.9597C241.778 41.7504 240.226 43.1331 238.208 44.1077C236.191 45.1051 233.788 45.6831 231 45.8417Z" fill="#E53E3E"/>
<path d="M246.893 38.1917L247.233 33.4317C248.457 33.4317 249.669 33.3637 250.871 33.2277C252.072 33.0917 253.239 32.8877 254.373 32.6157C255.506 32.3437 256.583 31.9924 257.603 31.5617C258.645 31.1311 259.62 30.6097 260.527 29.9977C259.847 29.5897 259.11 29.2384 258.317 28.9437C257.523 28.6491 256.673 28.4337 255.767 28.2977C254.883 28.1391 253.942 28.0597 252.945 28.0597C252.582 28.0597 252.197 28.0711 251.789 28.0937C251.403 28.1164 251.007 28.1617 250.599 28.2297C250.191 28.2751 249.783 28.3431 249.375 28.4337L248.695 23.7757C249.352 23.5944 250.043 23.4697 250.769 23.4017C251.517 23.3111 252.174 23.2657 252.741 23.2657C253.965 23.2657 255.087 23.4017 256.107 23.6737C257.149 23.9457 258.101 24.2857 258.963 24.6937C259.847 25.1017 260.663 25.5097 261.411 25.9177C262.181 26.3257 262.907 26.6657 263.587 26.9377C264.289 27.2097 264.969 27.3457 265.627 27.3457H266.885L267.429 31.8677C266.454 31.9131 265.536 32.1057 264.675 32.4457C263.836 32.7631 262.997 33.1711 262.159 33.6697C261.343 34.1457 260.459 34.6444 259.507 35.1657C258.577 35.6871 257.523 36.1744 256.345 36.6277C255.166 37.0811 253.806 37.4551 252.265 37.7497C250.723 38.0444 248.933 38.1917 246.893 38.1917ZM252.775 20.1037C252.072 20.1037 251.471 19.8657 250.973 19.3897C250.497 18.9137 250.259 18.3244 250.259 17.6217C250.259 16.9191 250.497 16.3184 250.973 15.8197C251.471 15.3211 252.072 15.0717 252.775 15.0717C253.455 15.0717 254.033 15.3211 254.509 15.8197C255.007 16.3184 255.257 16.9191 255.257 17.6217C255.257 18.3244 255.007 18.9137 254.509 19.3897C254.033 19.8657 253.455 20.1037 252.775 20.1037Z" fill="#E53E3E"/>
<path d="M269.884 37.0697C269.884 36.5484 269.929 35.9364 270.02 35.2337C270.111 34.5311 270.281 33.7377 270.53 32.8537C270.779 31.9471 271.153 30.9384 271.652 29.8277L275.834 31.2897C275.585 31.9924 275.369 32.6384 275.188 33.2277C275.007 33.7944 274.871 34.3271 274.78 34.8257C274.689 35.3017 274.644 35.7777 274.644 36.2537C274.644 37.3644 274.893 38.2711 275.392 38.9737C275.913 39.6991 276.639 40.2317 277.568 40.5717C278.497 40.9344 279.574 41.1157 280.798 41.1157C282.203 41.1157 283.359 40.9231 284.266 40.5377C285.173 40.1751 285.875 39.6877 286.374 39.0757C286.873 38.4864 287.224 37.8404 287.428 37.1377C287.632 36.4124 287.734 35.7097 287.734 35.0297C287.734 34.1004 287.575 33.0011 287.258 31.7317C286.941 30.4397 286.374 28.9891 285.558 27.3797L289.944 25.5097C290.397 26.3031 290.817 27.2324 291.202 28.2977C291.587 29.3404 291.893 30.4284 292.12 31.5617C292.369 32.6951 292.494 33.7717 292.494 34.7917C292.494 35.6984 292.381 36.6617 292.154 37.6817C291.927 38.6791 291.542 39.6651 290.998 40.6397C290.477 41.6144 289.763 42.4871 288.856 43.2577C287.949 44.0511 286.827 44.6857 285.49 45.1617C284.153 45.6377 282.555 45.8757 280.696 45.8757C279.2 45.8757 277.795 45.7057 276.48 45.3657C275.188 45.0484 274.043 44.5384 273.046 43.8357C272.071 43.1331 271.301 42.2151 270.734 41.0817C270.167 39.9711 269.884 38.6337 269.884 37.0697ZM280.968 24.1497C280.265 24.1497 279.665 23.9117 279.166 23.4357C278.69 22.9597 278.452 22.3704 278.452 21.6677C278.452 20.9651 278.69 20.3644 279.166 19.8657C279.665 19.3671 280.265 19.1177 280.968 19.1177C281.648 19.1177 282.226 19.3671 282.702 19.8657C283.201 20.3644 283.45 20.9651 283.45 21.6677C283.45 22.3704 283.201 22.9597 282.702 23.4357C282.226 23.9117 281.648 24.1497 280.968 24.1497Z" fill="#E53E3E"/>
<path d="M304.979 38.1917C302.871 38.1917 301.239 37.9764 300.083 37.5457C298.95 37.1151 298.156 36.4464 297.703 35.5397C297.25 34.6104 296.989 33.4431 296.921 32.0377L296.207 13.1337H300.967L301.681 29.7597C301.726 30.8024 301.84 31.5844 302.021 32.1057C302.202 32.6271 302.542 32.9784 303.041 33.1597C303.562 33.3411 304.322 33.4317 305.319 33.4317C306.18 33.4317 306.792 33.6584 307.155 34.1117C307.54 34.5424 307.733 35.0864 307.733 35.7437C307.733 36.4464 307.495 37.0357 307.019 37.5117C306.543 37.9651 305.863 38.1917 304.979 38.1917Z" fill="#E53E3E"/>
<path d="M305.025 38.1917L305.365 33.4317C306.363 33.4317 307.145 33.3637 307.711 33.2277C308.301 33.0917 308.72 32.8424 308.969 32.4797C309.219 32.0944 309.343 31.5504 309.343 30.8477C309.343 30.2131 309.253 29.4537 309.071 28.5697C308.913 27.6857 308.697 26.7677 308.425 25.8157C308.153 24.8637 307.881 23.9911 307.609 23.1977L312.301 21.9057C312.573 22.6764 312.845 23.5717 313.117 24.5917C313.389 25.6117 313.616 26.6657 313.797 27.7537C314.001 28.8191 314.103 29.8504 314.103 30.8477C314.103 32.0944 313.945 33.1484 313.627 34.0097C313.31 34.8484 312.868 35.5511 312.301 36.1177C311.757 36.6617 311.1 37.0924 310.329 37.4097C309.581 37.7044 308.754 37.9084 307.847 38.0217C306.941 38.1351 306 38.1917 305.025 38.1917ZM309.207 46.0117C308.55 46.0117 307.983 45.7851 307.507 45.3317C307.054 44.8784 306.827 44.3231 306.827 43.6657C306.827 43.0084 307.054 42.4304 307.507 41.9317C307.983 41.4557 308.55 41.2177 309.207 41.2177C309.865 41.2177 310.42 41.4557 310.873 41.9317C311.349 42.4304 311.587 43.0084 311.587 43.6657C311.587 44.3231 311.349 44.8784 310.873 45.3317C310.42 45.7851 309.865 46.0117 309.207 46.0117Z" fill="#E53E3E"/>
<path d="M318.468 38.0217L317.822 15.5137H322.582L323.228 38.0217H318.468ZM322.344 12.2157C321.664 12.2157 321.052 12.1024 320.508 11.8757C319.964 11.6264 319.466 11.3884 319.012 11.1617C318.559 10.9351 318.14 10.8217 317.754 10.8217C317.346 10.8217 316.972 10.9237 316.632 11.1277C316.315 11.3317 315.975 11.6151 315.612 11.9777L314.014 10.4817C314.626 9.71107 315.238 9.13307 315.85 8.74774C316.485 8.3624 317.12 8.16974 317.754 8.16974C318.321 8.16974 318.842 8.28307 319.318 8.50974C319.794 8.7364 320.27 8.96307 320.746 9.18974C321.245 9.4164 321.778 9.52974 322.344 9.52974C322.707 9.52974 323.047 9.47307 323.364 9.35974C323.682 9.22374 324.067 9.01974 324.52 8.74774L325.71 10.6177C324.894 11.3204 324.214 11.7624 323.67 11.9437C323.149 12.1251 322.707 12.2157 322.344 12.2157Z" fill="#E53E3E"/>
<path d="M121.76 53.4541L125.613 14.9784L129.066 66.1791C129.307 69.7511 134.475 69.9751 135.024 66.4374L136.732 55.4332C137.125 52.9073 138.7 50.7209 140.972 49.5497L142.347 48.8411C144.052 47.9623 145.384 46.5003 146.101 44.7214L147.283 41.7894C147.575 41.0667 148.544 40.9402 149.011 41.564L152.499 46.2217H169.588C171.078 46.2217 172.491 45.5566 173.441 44.4077L183.041 32.7961L179.959 30.2473L170.358 41.8589C170.168 42.0887 169.886 42.2217 169.588 42.2217H154.501L152.213 39.1665C149.878 36.0475 145.03 36.68 143.573 40.2938L142.391 43.2258C142.033 44.1153 141.367 44.8463 140.514 45.2857L139.14 45.9942C135.731 47.751 133.368 51.0306 132.78 54.8195L132.452 56.9326L128.801 2.79816C128.553 -0.872414 123.189 -0.959531 122.822 2.70114L118.32 47.6686L118.232 47.3473C117.605 45.0418 115.684 43.3588 113.381 42.9952C111.468 39.8342 107.024 39.4095 104.549 42.1853C104.528 42.2085 104.499 42.2217 104.468 42.2217L0 42.2217V46.2217L104.468 46.2217C105.639 46.2217 106.755 45.7216 107.535 44.8471C108.222 44.076 109.463 44.2041 109.978 45.0993L111.028 46.9217H112.443C113.345 46.9217 114.136 47.5261 114.373 48.3969L115.881 53.9424C116.754 57.1545 121.429 56.7664 121.76 53.4541Z" fill="url(#paint0_linear_38_1356)"/>
<defs>
<linearGradient id="paint0_linear_38_1356" x1="180" y1="31.5217" x2="78.5" y2="44.5217" gradientUnits="userSpaceOnUse">
<stop stop-color="#E53E3E"/>
<stop offset="1" stop-color="#E53E3E" stop-opacity="0"/>
</linearGradient>
</defs>
</svg>
