<svg width="40" height="40" viewBox="0 0 40 40" fill="none" xmlns="http://www.w3.org/2000/svg">
<path d="M13.4088 4.54248C16.4426 11.8837 24.3738 12.415 24.4313 17.4987C21.6063 22.2225 15.4238 19.815 16.4076 18.5412C14.1038 18.5525 11.9388 16.2487 12.7951 15.8887C11.4288 15.2287 10.1551 12.45 11.6826 11.9175C10.3163 10.76 10.7101 8.45498 11.8213 8.16623C11.1051 6.79998 12.6563 4.71498 13.4088 4.54248Z" fill="#CFD8DC"/>
<path d="M30.6838 13.3075L29.5263 14.3025V14.65C29.5263 15.8075 29.7238 16.9662 30.105 18.0537C30.7188 19.8362 31.425 23.1362 29.8725 26.5412C28.5413 29.4587 25.785 30.42 23.4925 30.4437C21.7325 30.4775 20.1813 31.6137 19.475 33.2225C18.5725 35.2837 17.6463 37.31 17.6463 37.31C16.8588 38.3862 13.4088 38.34 13.5013 36.8125C12.4125 38.0862 8.97379 36.8125 9.78504 35.3425C7.88504 36.28 5.57004 34.485 6.17254 33.1775C4.43504 33.4325 2.89504 30.26 4.63254 29.31C8.40754 28.4537 18.3763 26.9025 18.3763 26.9025L22.88 19.3062L24.9875 12C25.2763 11.0162 26.18 10.3337 27.21 10.3337C28.495 10.3337 29.5263 11.3637 29.5263 12.65V12.8112L30.6838 13.3075Z" fill="#ECEFF1"/>
<path d="M22.5363 19.8837L18.375 26.9C18.375 26.9 8.4063 28.4512 4.6313 29.3087C3.6113 29.8662 3.72505 31.1862 4.3413 32.1325C4.30755 31.5325 4.5163 30.9687 5.09505 30.6537C8.11505 29.9687 15.0988 28.8375 17.7713 28.4137C18.4513 28.3062 19.0425 27.9012 19.3938 27.3087C19.3938 27.3087 23.5625 20.8975 23.5625 19.8837C23.5625 18.87 22.5363 19.8837 22.5363 19.8837Z" fill="white"/>
<path d="M6.42505 34.5262C6.47255 34.5875 6.5213 34.6487 6.5763 34.7075C6.59255 34.645 6.60755 34.5812 6.6363 34.5212C6.56505 34.5312 6.49505 34.5275 6.42505 34.5262Z" fill="white"/>
<path d="M10.235 36.7212C10.2413 36.71 10.2413 36.6975 10.2488 36.6862C10.2363 36.6925 10.2225 36.6962 10.21 36.7025C10.2175 36.7075 10.2263 36.715 10.235 36.7212Z" fill="white"/>
<path d="M24.0375 18.4012C21.9425 26.1825 12.2738 25.2325 13.1663 23.0437C9.9238 23.9925 5.9638 21.5962 7.0288 20.7512C4.8413 20.3575 1.95755 16.965 3.88005 15.61C4.43505 15.8875 3.82255 15.575 3.82255 15.575C1.4838 14.44 1.16005 11.1062 2.59505 10.2725C1.05505 8.62873 2.4088 5.08623 3.3938 4.54248C10.5725 13.6662 21.9425 11.2687 24.0375 18.4012Z" fill="#ECEFF1"/>
<path d="M8.7663 21.33C6.5788 20.9362 3.69505 17.5437 5.6163 16.19C6.17255 16.4675 5.5588 16.155 5.5588 16.155C3.22005 15.02 2.8963 11.685 4.33255 10.8512C3.11255 9.55123 3.70755 7.06498 4.4963 5.81373C4.12005 5.41373 3.75005 4.99623 3.3938 4.54248C2.41005 5.08623 1.05505 8.62998 2.59505 10.2737C1.16005 11.1075 1.4838 14.4412 3.82255 15.5762C3.82255 15.5762 4.4363 15.8887 3.88005 15.6112C1.95755 16.965 4.8413 20.3587 7.0288 20.7525C6.2913 21.3387 7.9688 22.6687 10.1475 23.1137C8.93255 22.53 8.2438 21.745 8.7663 21.33Z" fill="white"/>
<path d="M31.45 5.225C32.125 6.2125 31.4625 7.825 31.4625 7.825C31.4625 7.825 29.725 7.825 29.0625 6.825C28.4 5.8375 28.4875 3.75 28.4875 3.75C28.4875 3.75 30.7875 4.225 31.45 5.225Z" fill="#55FB9B"/>
<path d="M37.9125 9.58749C37.9125 9.58749 36.9375 11.0875 35.9 11.375C34.875 11.6625 33.675 10.65 33.675 10.65C33.675 10.65 34.175 9.16249 35.2125 8.87499C36.2375 8.58749 37.9125 9.58749 37.9125 9.58749Z" fill="#55FB9B"/>
<path d="M37.0751 1.875C37.0751 1.875 37.4501 3.8125 36.8501 4.85C36.2376 5.8875 34.5001 6 34.5001 6C34.5001 6 33.7376 4.425 34.3501 3.3875C34.9501 2.35 37.0751 1.875 37.0751 1.875Z" fill="#55FB9B"/>
<path d="M13.5025 37.4325C13.3513 37.4325 13.1988 37.3775 13.0788 37.2675C12.825 37.0325 12.8088 36.6387 13.0425 36.3837C13.455 35.9375 14.5975 34.6625 14.93 34.1375C15.115 33.8462 15.5 33.76 15.7925 33.945C16.0838 34.13 16.17 34.5162 15.985 34.8075C15.5313 35.5225 14.12 37.0587 13.9613 37.2312C13.8388 37.365 13.6713 37.4325 13.5025 37.4325Z" fill="#455A64"/>
<path d="M9.78628 35.965C9.59253 35.965 9.40003 35.875 9.27878 35.705C9.07753 35.425 9.14128 35.0338 9.42003 34.8325C9.54878 34.74 9.72878 34.6213 9.94503 34.4775C10.6 34.0438 11.59 33.3875 12.3313 32.67C12.5788 32.43 12.9763 32.435 13.215 32.6838C13.455 32.9325 13.45 33.3275 13.2013 33.5675C12.3763 34.3663 11.3288 35.0613 10.635 35.5213C10.435 35.6525 10.2688 35.7638 10.1513 35.8488C10.04 35.9275 9.91253 35.965 9.78628 35.965Z" fill="#455A64"/>
<path d="M6.1713 33.8025C5.91255 33.8025 5.6713 33.6412 5.5813 33.3837C5.46755 33.0575 5.6388 32.7012 5.96505 32.5875L6.3488 32.4575C7.2313 32.1587 8.8738 31.6025 9.8313 31.0162C10.1263 30.835 10.5113 30.9287 10.6913 31.2225C10.8726 31.5162 10.7788 31.9012 10.4851 32.0825C9.4088 32.7425 7.68005 33.3275 6.7513 33.6425L6.38005 33.77C6.3088 33.7912 6.24005 33.8025 6.1713 33.8025Z" fill="#455A64"/>
<path d="M22.7675 14.6313C22.61 14.6313 22.4525 14.5725 22.3312 14.4538C21.6225 13.7625 20.7 13.1063 19.7237 12.4113C17.51 10.8363 14.7887 8.89878 13.1425 5.47628C12.9137 5.71753 12.645 6.08253 12.4575 6.52878C12.325 6.84003 12.1412 7.42753 12.375 7.87503C12.5362 8.18003 12.4187 8.55753 12.1125 8.71878C11.8062 8.88003 11.43 8.76253 11.27 8.45628C10.8987 7.75253 10.9325 6.84878 11.3625 5.91253C11.755 5.05628 12.5362 4.10253 13.2687 3.93378C13.5687 3.86253 13.8687 4.02128 13.9862 4.30378C15.445 7.83378 18.1025 9.72378 20.4475 11.3925C21.465 12.1163 22.4262 12.8 23.2037 13.5588C23.4512 13.8 23.4562 14.195 23.215 14.4425C23.0925 14.5688 22.93 14.6313 22.7675 14.6313Z" fill="#455A64"/>
<path d="M23.5238 17.6987C23.4676 17.6987 23.4088 17.6912 23.3501 17.6737C23.0188 17.5775 22.8276 17.2312 22.9226 16.9L24.3863 11.825C24.7538 10.5762 25.9138 9.70624 27.2101 9.70624C28.8313 9.70624 30.1513 11.025 30.1513 12.6475C30.1513 12.9925 29.8713 13.2725 29.5263 13.2725C29.1813 13.2725 28.9013 12.9925 28.9013 12.6475C28.9013 11.7 28.1588 10.9562 27.2101 10.9562C26.4651 10.9562 25.7976 11.4575 25.5863 12.175L24.1238 17.2475C24.0451 17.52 23.7951 17.6987 23.5238 17.6987Z" fill="#455A64"/>
<path d="M15.5438 38.6712C15.05 38.6712 14.5663 38.5975 14.1625 38.4525C13.7288 38.2962 13.395 38.0637 13.1763 37.775C12.1875 38.1625 10.8488 37.9162 9.95378 37.2962C9.50253 36.9837 9.21128 36.6025 9.09378 36.2C7.96003 36.3525 6.86878 35.8725 6.21378 35.235C5.75628 34.79 5.49503 34.2637 5.45753 33.75C4.49753 33.5 3.72628 32.5825 3.41253 31.6475C3.00253 30.4237 3.36378 29.2912 4.33253 28.7612C4.38378 28.7337 4.43753 28.7125 4.49378 28.7C7.93003 27.92 16.2888 26.5962 17.9875 26.33L18.5825 25.3275C18.7588 25.03 19.1425 24.9337 19.4388 25.1087C19.7363 25.285 19.8338 25.6687 19.6575 25.965L18.9125 27.2212C18.8175 27.3812 18.655 27.4912 18.47 27.52C18.3713 27.535 8.64628 29.0525 4.86503 29.8975C4.33253 30.2487 4.49753 30.955 4.59628 31.2512C4.83128 31.95 5.46503 32.65 6.08003 32.5587C6.31378 32.5262 6.53378 32.62 6.67128 32.8025C6.80878 32.9862 6.83378 33.23 6.73878 33.4387C6.60628 33.7262 6.83003 34.0925 7.08378 34.3387C7.63878 34.88 8.64878 35.2062 9.50753 34.7825C9.75003 34.6612 10.0463 34.7125 10.2363 34.9112C10.425 35.1087 10.4638 35.4062 10.3325 35.6437C10.2938 35.715 10.175 35.93 10.6638 36.2687C11.3525 36.745 12.6013 36.905 13.0263 36.4062C13.2013 36.2012 13.4875 36.1312 13.735 36.2325C13.985 36.3325 14.1413 36.5812 14.125 36.85C14.115 37.02 14.27 37.1625 14.585 37.2762C15.4413 37.5862 16.755 37.3675 17.11 36.98C17.2813 36.6062 18.1013 34.8025 18.9038 32.9712C19.7275 31.095 21.525 29.8562 23.4825 29.8187C24.7588 29.8062 27.8663 29.435 29.305 26.2825C30.7775 23.0512 30.0688 19.8687 29.515 18.2587C29.1088 17.1012 28.9013 15.8862 28.9013 14.6512V14.3037C28.9013 14.025 29.085 13.7812 29.3525 13.7037L30.6375 13.3337C30.9675 13.24 31.3163 13.43 31.4113 13.7612C31.5075 14.0937 31.315 14.4387 30.9838 14.535L30.1513 14.775C30.165 15.8262 30.3475 16.86 30.695 17.85C31.3113 19.64 32.095 23.1775 30.4425 26.8037C28.705 30.61 25.0088 31.0562 23.5 31.0712C22.0338 31.1 20.6775 32.0437 20.0488 33.4762C19.1438 35.5412 18.215 37.5725 18.215 37.5725C18.1975 37.6112 18.1763 37.6475 18.1513 37.6812C17.6625 38.345 16.58 38.6712 15.5438 38.6712Z" fill="#455A64"/>
<path d="M24.0375 19.0263C23.7675 19.0263 23.5175 18.85 23.4388 18.5775C22.4875 15.34 19.4 14.2338 15.4913 12.835C11.5 11.4063 6.99753 9.79375 3.34628 5.4725C3.05878 5.89875 2.72253 6.6325 2.58253 7.51875C2.49003 8.1025 2.42753 9.18125 3.05003 9.84625C3.17003 9.97375 3.23003 10.145 3.21753 10.3188C3.20503 10.4925 3.12003 10.6538 2.98378 10.7625C2.60753 11.0613 2.40753 11.8275 2.49503 12.6225C2.55128 13.1363 2.82128 14.3963 4.09378 15.0138C4.40503 15.165 4.53378 15.5375 4.38253 15.8488C4.23128 16.16 3.85753 16.2888 3.54753 16.1375C2.27628 15.5213 1.41753 14.2588 1.25253 12.76C1.14628 11.7938 1.35128 10.8675 1.78753 10.2375C1.32253 9.48 1.16628 8.46875 1.34753 7.32375C1.58128 5.84625 2.33003 4.41625 3.09128 3.995C3.36128 3.84625 3.69628 3.915 3.88503 4.155C7.38628 8.60625 11.9163 10.2263 15.9125 11.6575C19.9875 13.1163 23.5075 14.3763 24.6375 18.2238C24.735 18.555 24.545 18.9025 24.215 19C24.155 19.0188 24.095 19.0263 24.0375 19.0263Z" fill="#455A64"/>
<path d="M15.9775 25.2275C14.73 25.2275 13.6575 24.9412 13.0375 24.4187C12.825 24.24 12.6713 24.0325 12.58 23.81C9.94752 24.2037 7.01002 22.8887 6.37502 21.6625C6.29002 21.4987 6.24252 21.3325 6.23002 21.1712C4.63377 20.5587 3.02377 18.8912 2.69002 17.385C2.48002 16.4362 2.77502 15.625 3.52002 15.1C3.80127 14.9012 4.19127 14.9687 4.39127 15.2512C4.59002 15.5337 4.52252 15.9237 4.24002 16.1225C4.01877 16.2787 3.78127 16.5325 3.91002 17.115C4.18377 18.3512 5.84377 19.9037 7.13877 20.1375C7.38002 20.1812 7.57502 20.3625 7.63377 20.6C7.68252 20.7925 7.63627 20.9925 7.51627 21.1425C7.61502 21.285 7.88252 21.545 8.39002 21.825C9.46252 22.4175 11.3113 22.9387 12.9888 22.445C13.2188 22.3775 13.4675 22.4475 13.6288 22.6262C13.79 22.805 13.835 23.0587 13.7438 23.28C13.7288 23.3162 13.7138 23.355 13.8425 23.4625C14.6275 24.1237 17.6288 24.3662 20.1788 22.7737C20.47 22.5912 20.8563 22.6812 21.04 22.9737C21.2225 23.2662 21.1338 23.6512 20.84 23.835C19.3013 24.795 17.5088 25.2275 15.9775 25.2275Z" fill="#455A64"/>
<path d="M9.64381 14.25C6.96381 14.25 2.33006 10.8462 2.28131 10.81C2.00381 10.605 1.94506 10.2137 2.15006 9.93624C2.35506 9.65999 2.74756 9.59874 3.02381 9.80624C4.49256 10.8925 8.24506 13.21 9.84006 12.9887C10.1876 12.945 10.4963 13.1825 10.5438 13.525C10.5901 13.8675 10.3501 14.1812 10.0076 14.2287C9.89131 14.2437 9.76881 14.25 9.64381 14.25Z" fill="#455A64"/>
<path d="M2.65253 10.9337C2.54378 10.9337 2.43253 10.905 2.33128 10.845C2.03503 10.6675 1.91003 10.2662 2.08753 9.96998C2.26628 9.67248 2.62128 9.55998 2.91628 9.73748L2.97378 9.77248C3.27003 9.94998 3.36628 10.3337 3.18878 10.63C3.07128 10.825 2.86503 10.9337 2.65253 10.9337Z" fill="#455A64"/>
<path d="M9.6188 17.6975C6.7488 17.6975 3.94505 16.3425 3.6013 16.17C3.5413 16.14 3.4288 16.0663 3.3813 16.0175C3.13755 15.7738 3.13755 15.3775 3.3813 15.1338C3.5963 14.9188 3.9288 14.8925 4.17255 15.0575C4.6263 15.2813 7.73755 16.7538 10.5163 16.3913C10.8513 16.3413 11.1713 16.5875 11.2163 16.93C11.2613 17.2713 11.02 17.585 10.6775 17.63C10.325 17.6775 9.9713 17.6975 9.6188 17.6975Z" fill="#455A64"/>
<path d="M3.82251 16.2012C3.75751 16.2012 3.69126 16.1912 3.62501 16.1687C3.29751 16.06 3.10376 15.7 3.21251 15.3725C3.32251 15.045 3.65876 14.8625 3.98626 14.9712L4.02126 14.9825C4.34876 15.0912 4.52501 15.445 4.41626 15.7725C4.32751 16.0362 4.08376 16.2012 3.82251 16.2012Z" fill="#455A64"/>
<path d="M7.11003 21.4C6.77128 21.4 6.49253 21.1288 6.48503 20.7888C6.47878 20.4438 6.75128 20.1575 7.09628 20.15C7.12878 20.15 10.3525 20.0675 12.4338 18.9088C12.7363 18.7425 13.115 18.85 13.2838 19.1513C13.4513 19.4525 13.3425 19.8338 13.0413 20.0013C10.6863 21.3125 7.26753 21.3975 7.12253 21.4C7.11878 21.4 7.11378 21.4 7.11003 21.4Z" fill="#455A64"/>
<path d="M13.165 23.67C12.8563 23.67 12.5888 23.4425 12.5463 23.1275C12.5 22.7862 12.74 22.4712 13.0825 22.425C13.0825 22.425 14.09 22.245 15.7513 20.8512C16.0163 20.6312 16.4113 20.6662 16.6325 20.9287C16.8538 21.1925 16.8188 21.5875 16.555 21.81C14.6088 23.4425 13.3825 23.6462 13.2488 23.6637C13.2213 23.6675 13.1925 23.67 13.165 23.67Z" fill="#455A64"/>
<path d="M27.3263 13.2725C26.9813 13.2725 26.6438 12.9925 26.6438 12.6475C26.6438 12.3025 26.865 12.0225 27.2113 12.0225H27.3275C27.6725 12.0225 27.9525 12.3025 27.9525 12.6475C27.9525 12.9925 27.6713 13.2725 27.3263 13.2725Z" fill="#455A64"/>
<path d="M33.3738 18.1437C33.13 18.1437 32.8988 18 32.7975 17.7612C32.7513 17.6512 31.6613 15.0475 31.4138 13.4562C30.75 9.20374 33.9063 5.72248 34.0413 5.57623C34.275 5.32123 34.6712 5.30749 34.9237 5.53999C35.1775 5.77374 35.195 6.16873 34.9613 6.42248C34.9325 6.45373 32.08 9.61498 32.65 13.2625C32.875 14.705 33.94 17.25 33.9512 17.275C34.085 17.5925 33.935 17.96 33.6175 18.0937C33.5375 18.1275 33.455 18.1437 33.3738 18.1437Z" fill="#455A64"/>
<path d="M31.4625 8.44998C31.25 8.44998 29.365 8.41373 28.5413 7.16998C27.7888 6.04873 27.8538 3.95873 27.8638 3.72373C27.8713 3.54123 27.9588 3.36998 28.1038 3.25748C28.2475 3.14498 28.4338 3.09998 28.615 3.13748C28.8763 3.19123 31.19 3.69873 31.9725 4.87998C32.8075 6.10373 32.1225 7.86623 32.0413 8.06248C31.9438 8.29623 31.7163 8.44998 31.4625 8.44998ZM29.125 4.56873C29.17 5.26123 29.3025 6.06248 29.5813 6.47748C29.865 6.90498 30.5275 7.09248 31.0175 7.16248C31.1363 6.68498 31.2188 5.99248 30.935 5.57748C30.6538 5.15498 29.825 4.79373 29.125 4.56873Z" fill="#455A64"/>
<path d="M35.5125 12.0513C34.3988 12.0513 33.3838 11.2225 33.2725 11.1275C33.0763 10.9625 33.0013 10.6938 33.0825 10.45C33.145 10.2663 33.7263 8.63753 35.0463 8.27128C36.1938 7.95128 38.0613 8.94628 38.2338 9.05003C38.38 9.13628 38.4838 9.28003 38.5213 9.44503C38.56 9.61128 38.5288 9.78503 38.4375 9.92753C38.3238 10.1013 37.2975 11.6363 36.0675 11.9775C35.8925 12.0263 35.705 12.0513 35.5125 12.0513ZM34.4525 10.4338C34.8175 10.655 35.36 10.88 35.7313 10.7738C36.13 10.6638 36.5988 10.2313 36.9625 9.80753C36.4538 9.58378 35.7488 9.37878 35.38 9.47753C34.98 9.58753 34.6513 10.0538 34.4525 10.4338Z" fill="#455A64"/>
<path d="M34.5 6.625C34.2613 6.625 34.0425 6.48875 33.9375 6.2725C33.845 6.08125 33.0513 4.35875 33.8113 3.07C34.525 1.835 36.6938 1.32 36.9388 1.265C37.1025 1.22625 37.275 1.25875 37.4175 1.35125C37.5588 1.44375 37.6563 1.59 37.6888 1.75625C37.7325 1.9775 38.0875 3.9575 37.3913 5.1625C36.6313 6.4525 34.7525 6.60875 34.5413 6.6225C34.5275 6.62375 34.5138 6.625 34.5 6.625ZM36.5463 2.6775C35.8825 2.9075 35.1375 3.27625 34.8913 3.7C34.6275 4.14625 34.7525 4.83875 34.9025 5.31C35.3913 5.2075 36.0488 4.9775 36.3125 4.53125C36.5763 4.07625 36.59 3.28125 36.5463 2.6775Z" fill="#455A64"/>
</svg>
