<svg width="350" height="69" viewBox="0 0 350 69" fill="none" xmlns="http://www.w3.org/2000/svg">
<path d="M121.76 53.4541L125.613 14.9784L129.066 66.1791C129.307 69.7511 134.475 69.9751 135.024 66.4374L136.732 55.4332C137.125 52.9073 138.7 50.7209 140.972 49.5497L142.347 48.8411C144.052 47.9623 145.384 46.5003 146.101 44.7214L147.283 41.7894C147.575 41.0667 148.544 40.9402 149.011 41.564L152.499 46.2217H169.588C171.078 46.2217 172.491 45.5566 173.441 44.4077L183.041 32.7961L179.959 30.2473L170.358 41.8589C170.168 42.0887 169.886 42.2217 169.588 42.2217H154.501L152.213 39.1665C149.878 36.0475 145.03 36.68 143.573 40.2938L142.391 43.2258C142.033 44.1153 141.367 44.8463 140.514 45.2857L139.14 45.9942C135.731 47.751 133.368 51.0306 132.78 54.8195L132.452 56.9326L128.801 2.79816C128.553 -0.872414 123.189 -0.959531 122.822 2.70114L118.32 47.6686L118.232 47.3473C117.605 45.0418 115.684 43.3588 113.381 42.9952C111.468 39.8342 107.024 39.4095 104.549 42.1853C104.528 42.2085 104.499 42.2217 104.468 42.2217L0 42.2217V46.2217L104.468 46.2217C105.639 46.2217 106.755 45.7216 107.535 44.8471C108.222 44.076 109.463 44.2041 109.978 45.0993L111.028 46.9217H112.443C113.345 46.9217 114.136 47.5261 114.373 48.3969L115.881 53.9424C116.754 57.1545 121.429 56.7664 121.76 53.4541Z" fill="url(#paint0_linear_50_847)"/>
<path d="M282.11 36.8393L283.872 41.2654C285.462 40.7121 286.878 40.0897 288.122 39.3981C289.366 38.7296 290.449 37.9919 291.37 37.185C292.292 36.3782 293.04 35.5137 293.616 34.5916C294.215 33.6925 294.653 32.7243 294.929 31.6869C295.228 30.6495 295.378 29.566 295.378 28.4364C295.378 27.2146 295.148 25.9006 294.687 24.4944C294.249 23.0882 293.628 21.6128 292.821 20.0682L288.295 22.2467C288.756 23.0997 289.147 23.9181 289.47 24.7019C289.815 25.4857 290.08 26.2349 290.264 26.9495C290.449 27.6411 290.541 28.3097 290.541 28.9551C290.541 29.9695 290.241 30.9492 289.643 31.8944C289.067 32.8396 288.157 33.7271 286.913 34.557C285.692 35.3869 284.091 36.1477 282.11 36.8393Z" fill="#E53E3E"/>
<path d="M289.677 15.815C290.184 16.2991 290.794 16.5411 291.508 16.5411C292.199 16.5411 292.787 16.2991 293.271 15.815C293.777 15.3308 294.031 14.7315 294.031 14.0168C294.031 13.3022 293.777 12.6913 293.271 12.1841C292.787 11.6769 292.199 11.4234 291.508 11.4234C290.794 11.4234 290.184 11.6769 289.677 12.1841C289.193 12.6913 288.952 13.3022 288.952 14.0168C288.952 14.7315 289.193 15.3308 289.677 15.815Z" fill="#E53E3E"/>
<path d="M299.496 8L300.222 33.3122H305.059L304.333 8H299.496Z" fill="#E53E3E"/>
<path fill-rule="evenodd" clip-rule="evenodd" d="M307.873 36.4243L308.875 41.2654C311.708 41.1041 314.15 40.5162 316.2 39.5019C318.25 38.5106 319.828 37.1044 320.933 35.2832C322.039 33.462 322.592 31.2489 322.592 28.6439C322.592 27.6526 322.442 26.6153 322.143 25.5318C321.843 24.4483 321.406 23.4455 320.83 22.5234C320.254 21.5782 319.528 20.8174 318.653 20.2411C317.801 19.6648 316.799 19.3766 315.647 19.3766C314.68 19.3766 313.758 19.6302 312.883 20.1374C312.031 20.6215 311.27 21.29 310.602 22.143C309.957 22.9729 309.451 23.9181 309.082 24.9785C308.714 26.0389 308.529 27.134 308.529 28.2636C308.529 29.1857 308.679 29.981 308.978 30.6495C309.278 31.295 309.693 31.8252 310.222 32.2402C310.775 32.6551 311.409 32.9664 312.123 33.1738C312.837 33.3583 313.608 33.4505 314.438 33.4505C315.303 33.4505 316.06 33.3328 316.707 33.0974C316.324 33.6574 315.832 34.1209 315.232 34.4879C314.403 34.995 313.378 35.3869 312.157 35.6636C310.936 35.9632 309.508 36.2168 307.873 36.4243ZM317.704 28.4339C317.683 28.1005 317.642 27.7671 317.582 27.4336C317.49 26.9034 317.352 26.4193 317.167 25.9813C316.983 25.5433 316.741 25.186 316.442 24.9093C316.165 24.6327 315.831 24.4944 315.44 24.4944C315.025 24.4944 314.656 24.6442 314.334 24.9439C314.012 25.2206 313.758 25.5779 313.574 26.0159C313.39 26.4308 313.297 26.8573 313.297 27.2953C313.297 27.6181 313.378 27.8947 313.539 28.1252C313.701 28.3327 313.942 28.4941 314.265 28.6093C314.587 28.7016 314.99 28.7477 315.474 28.7477C316.027 28.7477 316.591 28.69 317.167 28.5748C317.352 28.5322 317.53 28.4853 317.704 28.4339Z" fill="#E53E3E"/>
<path d="M322.905 37.0122L324.667 41.3C326.049 40.885 327.385 40.3318 328.675 39.6402C329.965 38.9486 331.128 38.1417 332.164 37.2196C333.201 36.2975 334.042 35.2832 334.687 34.1766C335.099 33.5081 335.41 32.8132 335.621 32.092C336.028 32.5093 336.534 32.8354 337.14 33.0701C337.854 33.3467 338.683 33.485 339.628 33.485C339.641 33.485 339.655 33.485 339.669 33.4849C341.189 33.4849 342.583 33.3928 343.85 33.2084C345.117 33.0009 346.199 32.6321 347.098 32.1019C348.019 31.5717 348.733 30.8224 349.24 29.8542C349.747 28.8629 350 27.5835 350 26.0159C350 25.0016 349.908 23.9526 349.724 22.8692C349.539 21.7626 349.309 20.6907 349.033 19.6533C348.756 18.6159 348.468 17.7053 348.169 16.9215L343.401 18.2355C343.7 19.0424 343.976 19.9299 344.23 20.8981C344.506 21.8664 344.725 22.8 344.886 23.6991C345.071 24.5981 345.163 25.3704 345.163 26.0159C345.163 26.7305 345.013 27.2838 344.714 27.6757C344.437 28.0446 343.93 28.2981 343.193 28.4364C342.456 28.5748 341.397 28.6439 340.014 28.6439C340.001 28.6438 339.987 28.6439 339.973 28.6439C338.706 28.6439 337.785 28.4595 337.209 28.0907C336.656 27.7218 336.219 26.9841 335.896 25.8776C335.827 25.647 335.689 25.209 335.481 24.5636C335.274 23.9181 335.009 23.1919 334.687 22.385C334.387 21.5551 334.03 20.7829 333.616 20.0682L329.089 22.2467C329.711 23.4455 330.241 24.6212 330.679 25.7738C331.116 26.9265 331.335 27.9869 331.335 28.9551C331.335 29.8773 331.128 30.7417 330.713 31.5486C330.299 32.3324 329.711 33.0586 328.951 33.7271C328.191 34.3956 327.293 35.0065 326.256 35.5598C325.243 36.1131 324.125 36.5972 322.905 37.0122Z" fill="#E53E3E"/>
<path d="M343.435 44.4122C343.827 44.8041 344.31 45 344.886 45C345.439 45 345.911 44.8041 346.303 44.4122C346.695 44.0202 346.89 43.5477 346.89 42.9944C346.89 42.4181 346.695 41.9224 346.303 41.5075C345.911 41.0925 345.439 40.885 344.886 40.885C344.31 40.885 343.827 41.0925 343.435 41.5075C343.067 41.9224 342.882 42.4181 342.882 42.9944C342.882 43.5477 343.067 44.0202 343.435 44.4122Z" fill="#E53E3E"/>
<path d="M346.096 39.9514C346.487 40.3433 346.971 40.5393 347.547 40.5393C348.1 40.5393 348.572 40.3433 348.963 39.9514C349.355 39.5595 349.551 39.0869 349.551 38.5336C349.551 37.9573 349.355 37.4617 348.963 37.0467C348.572 36.6318 348.1 36.4243 347.547 36.4243C346.971 36.4243 346.487 36.6318 346.096 37.0467C345.727 37.4617 345.543 37.9573 345.543 38.5336C345.543 39.0869 345.727 39.5595 346.096 39.9514Z" fill="#E53E3E"/>
<path d="M340.913 39.9514C341.304 40.3433 341.788 40.5393 342.364 40.5393C342.894 40.5393 343.354 40.3433 343.746 39.9514C344.161 39.5595 344.368 39.0869 344.368 38.5336C344.368 37.9573 344.161 37.4617 343.746 37.0467C343.354 36.6318 342.894 36.4243 342.364 36.4243C341.788 36.4243 341.304 36.6318 340.913 37.0467C340.521 37.4617 340.325 37.9573 340.325 38.5336C340.325 39.0869 340.521 39.5595 340.913 39.9514Z" fill="#E53E3E"/>
<path fill-rule="evenodd" clip-rule="evenodd" d="M180.449 33.0701C180.772 33.3928 181.221 33.5542 181.797 33.5542C182.396 33.5542 182.845 33.3928 183.144 33.0701C183.444 32.7474 183.593 32.2978 183.593 31.7215V23.8374H190.089C192.715 23.8374 194.742 23.1919 196.17 21.9009C197.598 20.5869 198.313 18.7427 198.313 16.3682C198.313 14.0168 197.598 12.1956 196.17 10.9047C194.742 9.59066 192.715 8.93365 190.089 8.93365H181.831C181.255 8.93365 180.806 9.09502 180.484 9.41776C180.161 9.71745 180 10.167 180 10.7664V31.7215C180 32.2978 180.15 32.7474 180.449 33.0701ZM189.571 20.9673H183.593V11.8037H189.571C191.298 11.8037 192.6 12.1956 193.475 12.9794C194.374 13.7402 194.823 14.8698 194.823 16.3682C194.823 17.8897 194.374 19.0424 193.475 19.8262C192.6 20.5869 191.298 20.9673 189.571 20.9673Z" fill="#E53E3E"/>
<path d="M207.179 33.3813C208.192 33.5427 209.229 33.6234 210.288 33.6234C211.716 33.6234 212.995 33.462 214.124 33.1393C215.275 32.7935 216.254 32.3093 217.06 31.6869C217.867 31.0645 218.489 30.3268 218.926 29.4738C219.364 28.5978 219.583 27.6181 219.583 26.5346C219.583 24.8517 219.018 23.5031 217.89 22.4888C216.761 21.4745 215.045 20.7252 212.741 20.2411L209.079 19.4804C207.628 19.1807 206.591 18.7427 205.969 18.1664C205.347 17.59 205.036 16.8178 205.036 15.8495C205.036 14.9966 205.255 14.2589 205.693 13.6365C206.154 13.014 206.799 12.5299 207.628 12.1841C208.48 11.8383 209.471 11.6654 210.599 11.6654C211.728 11.6654 212.753 11.8037 213.674 12.0804C214.619 12.334 215.54 12.7604 216.439 13.3598C216.83 13.6134 217.187 13.7287 217.51 13.7056C217.832 13.6595 218.097 13.5327 218.304 13.3252C218.512 13.1178 218.638 12.8642 218.684 12.5645C218.754 12.2648 218.731 11.9651 218.615 11.6654C218.523 11.3427 218.327 11.0776 218.028 10.8701C217.037 10.1093 215.909 9.54455 214.642 9.1757C213.398 8.80685 212.062 8.62243 210.634 8.62243C209.298 8.62243 208.065 8.79533 206.937 9.14112C205.808 9.48692 204.841 9.99408 204.034 10.6626C203.228 11.3081 202.595 12.0804 202.134 12.9794C201.696 13.8785 201.478 14.8698 201.478 15.9533C201.478 17.7514 202.007 19.1807 203.067 20.2411C204.15 21.3016 205.785 22.0623 207.973 22.5234L211.67 23.2841C213.237 23.6069 214.354 24.0449 215.022 24.5981C215.69 25.1283 216.024 25.8545 216.024 26.7766C216.024 27.9062 215.552 28.8284 214.607 29.543C213.686 30.2346 212.246 30.5804 210.288 30.5804C208.929 30.5804 207.674 30.4305 206.522 30.1308C205.37 29.8081 204.276 29.3125 203.24 28.6439C202.871 28.3903 202.537 28.2981 202.238 28.3673C201.938 28.4134 201.685 28.5517 201.478 28.7822C201.27 29.0128 201.132 29.2894 201.063 29.6121C201.017 29.9118 201.051 30.2231 201.167 30.5458C201.305 30.8685 201.547 31.1567 201.892 31.4103C202.606 31.8944 203.412 32.3093 204.311 32.6551C205.209 32.9779 206.165 33.2199 207.179 33.3813Z" fill="#E53E3E"/>
<path d="M225.632 33.2776C225.931 33.462 226.288 33.5542 226.703 33.5542C227.187 33.5542 227.59 33.462 227.912 33.2776C228.235 33.0931 228.5 32.7935 228.707 32.3785L238.969 12.5299C239.153 12.1611 239.291 11.8268 239.383 11.5271C239.499 11.2274 239.556 10.8701 239.556 10.4551C239.556 9.97103 239.395 9.60218 239.073 9.3486C238.773 9.07196 238.37 8.93365 237.863 8.93365H224.284C223.778 8.93365 223.386 9.07196 223.11 9.3486C222.833 9.60218 222.695 9.97103 222.695 10.4551C222.695 10.9162 222.833 11.285 223.11 11.5617C223.386 11.8153 223.778 11.9421 224.284 11.9421H235.464L225.355 31.2374C225.148 31.6754 225.067 32.0788 225.114 32.4477C225.183 32.7935 225.355 33.0701 225.632 33.2776Z" fill="#E53E3E"/>
<path d="M248.457 33.1047C249.747 33.4505 251.026 33.6234 252.292 33.6234C254.043 33.6234 255.552 33.2891 256.819 32.6206C258.086 31.952 259.065 31.0299 259.756 29.8542C260.447 28.6555 260.792 27.2723 260.792 25.7047C260.792 24.1601 260.481 22.8115 259.859 21.6589C259.237 20.4832 258.362 19.5726 257.233 18.9271C256.105 18.2816 254.769 17.9589 253.225 17.9589C251.981 17.9589 250.841 18.2009 249.805 18.685C249.251 18.9495 248.756 19.2725 248.319 19.6539V11.9421H257.994C258.5 11.9421 258.892 11.8153 259.168 11.5617C259.445 11.285 259.583 10.9047 259.583 10.4206C259.583 9.93645 259.445 9.5676 259.168 9.31402C258.892 9.06044 258.5 8.93365 257.994 8.93365H246.419C245.912 8.93365 245.52 9.07196 245.244 9.3486C244.967 9.62523 244.829 10.0171 244.829 10.5243V22.2467C244.829 22.6847 244.956 23.0305 245.209 23.2841C245.463 23.5377 245.831 23.6645 246.315 23.6645C246.637 23.6645 246.925 23.5953 247.179 23.457C247.455 23.2956 247.674 23.1227 247.835 22.9383C248.526 22.2237 249.252 21.7165 250.012 21.4168C250.772 21.0941 251.59 20.9327 252.465 20.9327C253.985 20.9327 255.172 21.3938 256.024 22.3159C256.876 23.238 257.302 24.4252 257.302 25.8776C257.302 26.8227 257.095 27.6526 256.681 28.3673C256.289 29.0589 255.713 29.6006 254.953 29.9925C254.193 30.3844 253.283 30.5804 252.223 30.5804C251.187 30.5804 250.185 30.4305 249.217 30.1308C248.273 29.8312 247.351 29.3931 246.453 28.8168C246.085 28.5863 245.739 28.4941 245.417 28.5402C245.094 28.5632 244.818 28.6785 244.587 28.886C244.38 29.0935 244.242 29.3586 244.173 29.6813C244.104 29.981 244.127 30.2922 244.242 30.615C244.357 30.9377 244.587 31.2028 244.933 31.4103C245.992 32.171 247.167 32.7358 248.457 33.1047Z" fill="#E53E3E"/>
<path d="M265.443 32.8972C265.72 33.1738 266.169 33.3122 266.791 33.3122H279.713C280.22 33.3122 280.612 33.1854 280.888 32.9318C281.164 32.6551 281.303 32.2748 281.303 31.7907C281.303 31.3065 281.164 30.9377 280.888 30.6841C280.612 30.4305 280.22 30.3037 279.713 30.3037H269.68L275.705 23.9757C276.719 22.9153 277.536 21.9125 278.158 20.9673C278.803 19.9991 279.276 19.0539 279.575 18.1318C279.897 17.2097 280.059 16.2645 280.059 15.2963C280.059 13.867 279.759 12.6567 279.16 11.6654C278.561 10.6741 277.675 9.92492 276.5 9.41776C275.348 8.88754 273.931 8.62243 272.25 8.62243C270.96 8.62243 269.693 8.81838 268.449 9.21028C267.205 9.60218 266.111 10.1555 265.167 10.8701C264.821 11.1006 264.602 11.3773 264.51 11.7C264.418 12.0227 264.407 12.334 264.476 12.6336C264.545 12.9333 264.683 13.1869 264.89 13.3944C265.121 13.6019 265.386 13.7171 265.685 13.7402C265.985 13.7632 266.307 13.6595 266.653 13.429C267.505 12.8065 268.357 12.357 269.209 12.0804C270.062 11.8037 270.949 11.6654 271.87 11.6654C273.39 11.6654 274.542 11.9997 275.325 12.6682C276.108 13.3368 276.5 14.3165 276.5 15.6075C276.5 16.6218 276.246 17.6361 275.74 18.6505C275.256 19.6417 274.45 20.7368 273.321 21.9355L265.962 29.8196C265.662 30.1424 265.432 30.4536 265.27 30.7533C265.109 31.053 265.029 31.3642 265.029 31.6869C265.029 32.1941 265.167 32.5975 265.443 32.8972Z" fill="#E53E3E"/>
<defs>
<linearGradient id="paint0_linear_50_847" x1="180" y1="31.5217" x2="78.5" y2="44.5217" gradientUnits="userSpaceOnUse">
<stop stop-color="#E53E3E"/>
<stop offset="1" stop-color="#E53E3E" stop-opacity="0"/>
</linearGradient>
</defs>
</svg>
