<svg width="361" height="69" viewBox="0 0 361 69" fill="none" xmlns="http://www.w3.org/2000/svg">
<path fill-rule="evenodd" clip-rule="evenodd" d="M235.415 14.9833L239.267 53.4716C239.599 56.785 244.272 57.1732 245.146 53.96L246.653 48.4128C246.89 47.5417 247.681 46.9371 248.583 46.9371H249.998L251.047 45.114C251.562 44.2185 252.802 44.0905 253.489 44.8618C254.269 45.7366 255.384 46.2369 256.556 46.2369L361 46.2369V42.2356L256.556 42.2355C256.525 42.2355 256.495 42.2223 256.475 42.1991C254 39.4224 249.558 39.8473 247.645 43.0092C245.342 43.373 243.421 45.0565 242.794 47.3628L242.707 47.6842L238.205 2.70203C237.839 -0.959843 232.476 -0.872697 232.228 2.79908L228.578 56.9513L228.25 54.8374C227.662 51.0473 225.299 47.7666 221.892 46.0093L220.518 45.3005C219.665 44.861 218.999 44.1297 218.641 43.24L217.459 40.307C216.003 36.692 211.156 36.0593 208.821 39.1793L206.534 42.2355H191.451C191.153 42.2355 190.87 42.1025 190.68 41.8726L182.977 32.5752C182.945 32.3562 182.881 32.1999 182.784 32.1063C182.641 31.9468 182.456 31.8671 182.23 31.8671C182.045 31.887 181.809 31.9369 181.521 32.0166C181.254 32.0764 180.935 32.1063 180.566 32.1063C179.518 32.1063 178.758 31.8372 178.285 31.299C177.833 30.7608 177.607 29.9635 177.607 28.907V22.0897H181.213C181.624 22.0897 181.942 21.99 182.168 21.7907C182.394 21.5714 182.507 21.2824 182.507 20.9236C182.507 20.5449 182.394 20.2558 182.168 20.0565C181.942 19.8571 181.624 19.7575 181.213 19.7575H177.607V16.6777C177.607 16.1794 177.474 15.8007 177.207 15.5415C176.94 15.2824 176.56 15.1528 176.067 15.1528C175.574 15.1528 175.183 15.2824 174.896 15.5415C174.629 15.8007 174.495 16.1794 174.495 16.6777V19.7575H172.646C172.236 19.7575 171.917 19.8571 171.691 20.0565C171.465 20.2558 171.352 20.5449 171.352 20.9236C171.352 21.2824 171.465 21.5714 171.691 21.7907C171.917 21.99 172.236 22.0897 172.646 22.0897H174.495V29.1462C174.495 30.3223 174.701 31.3189 175.112 32.1362C175.522 32.9535 176.149 33.5714 176.991 33.99C177.83 34.4072 178.863 34.6165 180.09 34.6179L187.598 44.4222C188.548 45.5715 189.96 46.2369 191.451 46.2369H208.536L212.023 41.5776C212.49 40.9536 213.459 41.0801 213.75 41.8031L214.932 44.7361C215.649 46.5155 216.981 47.978 218.685 48.8571L220.06 49.5659C222.331 50.7375 223.906 52.9246 224.298 55.4513L226.007 66.4592C226.556 69.998 231.722 69.7739 231.963 66.2007L235.415 14.9833ZM27.0119 34.6179C26.067 34.6179 25.1425 34.5482 24.2386 34.4086C23.3347 34.2691 22.4822 34.0598 21.681 33.7807C20.8799 33.4817 20.1609 33.1229 19.524 32.7043C19.2159 32.4851 19.0002 32.2359 18.8769 31.9568C18.7742 31.6777 18.7434 31.4086 18.7845 31.1495C18.8461 30.8704 18.9694 30.6312 19.1543 30.4319C19.3392 30.2326 19.5651 30.113 19.8322 30.0731C20.0992 30.0133 20.3971 30.093 20.7258 30.3123C21.6502 30.8904 22.626 31.3189 23.6532 31.598C24.6803 31.8571 25.7999 31.9867 27.0119 31.9867C28.7581 31.9867 30.042 31.6877 30.8637 31.0897C31.706 30.4718 32.1271 29.6744 32.1271 28.6977C32.1271 27.9003 31.8292 27.2724 31.2335 26.814C30.6378 26.3356 29.6414 25.9568 28.2445 25.6777L24.9474 25.0199C22.9958 24.6213 21.5372 23.9635 20.5717 23.0465C19.6268 22.1296 19.1543 20.8937 19.1543 19.3389C19.1543 18.402 19.3494 17.5449 19.7397 16.7674C20.1506 15.99 20.7155 15.3223 21.4345 14.7641C22.1535 14.1861 23.0163 13.7475 24.0229 13.4485C25.0295 13.1495 26.1286 13 27.3201 13C28.5937 13 29.7852 13.1595 30.8945 13.4784C32.0244 13.7973 33.031 14.2857 33.9144 14.9435C34.1814 15.1229 34.356 15.3522 34.4382 15.6312C34.5409 15.8904 34.5615 16.1495 34.4998 16.4086C34.4587 16.6678 34.3458 16.887 34.1609 17.0664C33.976 17.2459 33.7397 17.3555 33.4521 17.3954C33.1645 17.4153 32.8461 17.3156 32.4969 17.0963C31.6957 16.5781 30.874 16.2093 30.0317 15.99C29.21 15.7508 28.2959 15.6312 27.2893 15.6312C26.2827 15.6312 25.3993 15.7807 24.6392 16.0797C23.8997 16.3787 23.3245 16.7973 22.9136 17.3356C22.5233 17.8738 22.3281 18.5116 22.3281 19.2492C22.3281 20.0864 22.6055 20.7542 23.1601 21.2525C23.7148 21.7508 24.6392 22.1296 25.9334 22.3887L29.1998 23.0465C31.254 23.4651 32.7845 24.113 33.7911 24.99C34.7977 25.8671 35.301 27.0332 35.301 28.4884C35.301 29.4253 35.1058 30.2724 34.7155 31.0299C34.3252 31.7674 33.7706 32.4053 33.0516 32.9435C32.3325 33.4817 31.4595 33.9003 30.4323 34.1993C29.4257 34.4784 28.2856 34.6179 27.0119 34.6179ZM1.60235 34.5581C1.08877 34.5581 0.688188 34.4186 0.400587 34.1395C0.133529 33.8605 0 33.4718 0 32.9734V14.8538C0 14.3356 0.1438 13.9468 0.431401 13.6877C0.719002 13.4086 1.11959 13.2691 1.63316 13.2691H8.9978C11.3397 13.2691 13.1475 13.8372 14.4211 14.9734C15.6948 16.0897 16.3316 17.6645 16.3316 19.6977C16.3316 21.7508 15.6948 23.3455 14.4211 24.4817C13.1475 25.598 11.3397 26.1561 8.9978 26.1561H3.20469V32.9734C3.20469 33.4718 3.07117 33.8605 2.80411 34.1395C2.53705 34.4186 2.13646 34.5581 1.60235 34.5581ZM3.20469 23.6744H8.53558C10.0763 23.6744 11.237 23.3455 12.0176 22.6877C12.8188 22.01 13.2194 21.0133 13.2194 19.6977C13.2194 18.402 12.8188 17.4253 12.0176 16.7674C11.237 16.0897 10.0763 15.7508 8.53558 15.7508H3.20469V23.6744ZM40.6957 34.3189C40.9627 34.4784 41.2812 34.5581 41.6509 34.5581C42.0823 34.5581 42.4418 34.4784 42.7294 34.3189C43.017 34.1595 43.2533 33.9003 43.4382 33.5415L52.59 16.3787C52.7544 16.0598 52.8776 15.7708 52.9598 15.5116C53.0625 15.2525 53.1139 14.9435 53.1139 14.5847C53.1139 14.1661 52.9701 13.8472 52.6825 13.6279C52.4154 13.3887 52.0559 13.2691 51.604 13.2691H39.4939C39.042 13.2691 38.6927 13.3887 38.4462 13.6279C38.1997 13.8472 38.0765 14.1661 38.0765 14.5847C38.0765 14.9834 38.1997 15.3023 38.4462 15.5415C38.6927 15.7608 39.042 15.8704 39.4939 15.8704H49.464L40.4492 32.5548C40.2643 32.9336 40.1924 33.2824 40.2335 33.6013C40.2951 33.9003 40.4492 34.1395 40.6957 34.3189ZM64.4723 34.6179C63.3425 34.6179 62.2023 34.4684 61.0519 34.1694C59.9015 33.8505 58.8539 33.3621 57.9089 32.7043C57.6007 32.5249 57.3953 32.2957 57.2926 32.0166C57.1899 31.7375 57.1693 31.4684 57.231 31.2093C57.2926 30.9302 57.4158 30.701 57.6007 30.5216C57.8062 30.3422 58.0527 30.2425 58.3403 30.2226C58.6279 30.1827 58.936 30.2625 59.2647 30.4618C60.0659 30.9601 60.8876 31.3389 61.7299 31.598C62.5927 31.8571 63.4863 31.9867 64.4107 31.9867C65.3557 31.9867 66.1671 31.8173 66.845 31.4784C67.523 31.1395 68.0365 30.6711 68.3858 30.0731C68.7555 29.4552 68.9404 28.7375 68.9404 27.9203C68.9404 26.6645 68.5604 25.6379 67.8003 24.8405C67.0402 24.0432 65.9822 23.6445 64.6264 23.6445C63.8458 23.6445 63.1165 23.7841 62.4386 24.0631C61.7607 24.3223 61.1136 24.7608 60.4973 25.3787C60.3535 25.5382 60.1583 25.6877 59.9118 25.8272C59.6858 25.9468 59.4291 26.0066 59.1415 26.0066C58.71 26.0066 58.3814 25.897 58.1554 25.6777C57.9294 25.4585 57.8164 25.1595 57.8164 24.7807V14.6445C57.8164 14.206 57.9397 13.8671 58.1862 13.6279C58.4327 13.3887 58.7819 13.2691 59.2339 13.2691H69.5567C70.0087 13.2691 70.3579 13.3787 70.6044 13.598C70.8509 13.8173 70.9742 14.1362 70.9742 14.5548C70.9742 14.9734 70.8509 15.3023 70.6044 15.5415C70.3579 15.7608 70.0087 15.8704 69.5567 15.8704H60.9287V22.5387C61.3182 22.2089 61.7599 21.9297 62.2537 21.701C63.1781 21.2824 64.195 21.0731 65.3043 21.0731C66.6807 21.0731 67.8722 21.3522 68.8788 21.9103C69.8854 22.4684 70.666 23.2558 71.2207 24.2724C71.7754 25.2691 72.0527 26.4352 72.0527 27.7708C72.0527 29.1262 71.7445 30.3223 71.1282 31.3588C70.512 32.3754 69.6389 33.1728 68.509 33.7508C67.3792 34.3289 66.0336 34.6179 64.4723 34.6179ZM76.2006 33.99C76.4471 34.2292 76.8477 34.3488 77.4023 34.3488H88.9269C89.3789 34.3488 89.7281 34.2392 89.9746 34.0199C90.2211 33.7807 90.3444 33.4518 90.3444 33.0332C90.3444 32.6146 90.2211 32.2957 89.9746 32.0764C89.7281 31.8571 89.3789 31.7475 88.9269 31.7475H79.9794L85.3524 26.2757C86.2563 25.3588 86.9856 24.4917 87.5403 23.6744C88.1155 22.8372 88.5366 22.0199 88.8037 21.2226C89.0913 20.4253 89.2351 19.608 89.2351 18.7708C89.2351 17.5349 88.968 16.4884 88.4339 15.6312C87.8998 14.7741 87.1089 14.1262 86.0612 13.6877C85.034 13.2292 83.7706 13 82.271 13C81.1206 13 79.9907 13.1694 78.8814 13.5083C77.7721 13.8472 76.7963 14.3256 75.9541 14.9435C75.6459 15.1429 75.4508 15.3821 75.3686 15.6611C75.2864 15.9402 75.2761 16.2093 75.3378 16.4684C75.3994 16.7276 75.5227 16.9468 75.7076 17.1262C75.913 17.3057 76.1492 17.4053 76.4163 17.4253C76.6833 17.4452 76.9709 17.3555 77.2791 17.1561C78.0392 16.6179 78.7993 16.2292 79.5593 15.99C80.3194 15.7508 81.1103 15.6312 81.9321 15.6312C83.2879 15.6312 84.315 15.9203 85.0135 16.4983C85.712 17.0764 86.0612 17.9236 86.0612 19.0399C86.0612 19.9169 85.8352 20.794 85.3833 21.6711C84.9519 22.5282 84.2329 23.4751 83.2263 24.5116L76.6628 31.3289C76.3957 31.608 76.1903 31.8771 76.0465 32.1362C75.9027 32.3954 75.8308 32.6645 75.8308 32.9435C75.8308 33.3821 75.9541 33.7309 76.2006 33.99ZM104.831 34.5581C104.297 34.5581 103.875 34.4186 103.567 34.1395C103.28 33.8605 103.136 33.4518 103.136 32.9136V14.9435C103.136 14.4053 103.28 13.9967 103.567 13.7176C103.875 13.4186 104.307 13.2691 104.861 13.2691H115.831C116.283 13.2691 116.612 13.3787 116.817 13.598C117.043 13.7973 117.156 14.0963 117.156 14.495C117.156 14.9136 117.043 15.2326 116.817 15.4518C116.612 15.6711 116.283 15.7807 115.831 15.7807H106.341V22.5083H115.215C115.626 22.5083 115.944 22.6179 116.17 22.8372C116.417 23.0365 116.54 23.3356 116.54 23.7342C116.54 24.1528 116.417 24.4718 116.17 24.691C115.944 24.9103 115.626 25.0199 115.215 25.0199H106.341V32.9136C106.341 34.01 105.837 34.5581 104.831 34.5581ZM121.934 33.2724C122.755 34.1694 123.967 34.6179 125.57 34.6179C125.755 34.6179 125.95 34.608 126.155 34.588C126.361 34.588 126.556 34.5781 126.741 34.5581C127.152 34.4983 127.449 34.3588 127.634 34.1395C127.819 33.9003 127.912 33.5714 127.912 33.1528C127.912 32.6944 127.86 32.3954 127.758 32.2558C127.655 32.0963 127.48 32.0266 127.234 32.0465L126.802 32.1063H126.309C125.508 32.1063 124.892 31.8671 124.46 31.3887C124.05 30.8904 123.844 30.1429 123.844 29.1462V14.5847C123.844 14.0864 123.7 13.7076 123.413 13.4485C123.146 13.1894 122.766 13.0598 122.273 13.0598C121.78 13.0598 121.399 13.1894 121.132 13.4485C120.865 13.7076 120.732 14.0864 120.732 14.5847V29.3256C120.732 31.0399 121.132 32.3555 121.934 33.2724ZM131.691 34.5282C131.198 34.5282 130.818 34.3887 130.551 34.1096C130.284 33.8106 130.151 33.402 130.151 32.8837V21.2226C130.151 20.7043 130.284 20.3057 130.551 20.0266C130.818 19.7475 131.198 19.608 131.691 19.608C132.184 19.608 132.564 19.7475 132.832 20.0266C133.119 20.3057 133.263 20.7043 133.263 21.2226V32.8837C133.263 33.402 133.129 33.8106 132.862 34.1096C132.595 34.3887 132.205 34.5282 131.691 34.5282ZM130.243 16.0498C130.592 16.3488 131.075 16.4983 131.691 16.4983C132.308 16.4983 132.78 16.3488 133.109 16.0498C133.458 15.7508 133.633 15.3322 133.633 14.794C133.633 14.2359 133.458 13.8173 133.109 13.5382C132.78 13.2392 132.308 13.0897 131.691 13.0897C131.075 13.0897 130.592 13.2392 130.243 13.5382C129.914 13.8173 129.75 14.2359 129.75 14.794C129.75 15.3322 129.914 15.7508 130.243 16.0498ZM144.454 40C143.344 40 142.266 39.8904 141.218 39.6711C140.191 39.4518 139.256 39.093 138.414 38.5947C138.106 38.4352 137.9 38.2359 137.798 37.9967C137.695 37.7774 137.664 37.5482 137.705 37.309C137.767 37.0698 137.88 36.8605 138.044 36.6811C138.209 36.5017 138.404 36.3821 138.63 36.3223C138.876 36.2625 139.133 36.3023 139.4 36.4419C140.304 36.9203 141.156 37.2392 141.958 37.3987C142.779 37.5781 143.539 37.6678 144.238 37.6678C145.676 37.6678 146.754 37.309 147.473 36.5914C148.192 35.8937 148.552 34.8571 148.552 33.4817V31.1751C148.194 31.9277 147.64 32.547 146.888 33.0332C145.902 33.6711 144.762 33.99 143.468 33.99C142.112 33.99 140.931 33.691 139.924 33.093C138.917 32.4751 138.137 31.6279 137.582 30.5515C137.027 29.4552 136.75 28.1794 136.75 26.7243C136.75 25.6279 136.904 24.6412 137.212 23.7641C137.541 22.887 137.993 22.1296 138.568 21.4917C139.164 20.8538 139.873 20.3655 140.694 20.0266C141.537 19.6678 142.461 19.4884 143.468 19.4884C144.782 19.4884 145.922 19.8073 146.888 20.4452C147.609 20.9114 148.143 21.5 148.49 22.211V21.0731C148.49 20.5748 148.624 20.196 148.891 19.9369C149.178 19.6777 149.559 19.5482 150.031 19.5482C150.524 19.5482 150.904 19.6777 151.171 19.9369C151.438 20.196 151.572 20.5748 151.572 21.0731V33.1229C151.572 35.3954 150.966 37.1096 149.754 38.2658C148.542 39.4219 146.775 40 144.454 40ZM144.207 31.6279C145.111 31.6279 145.881 31.4286 146.518 31.0299C147.155 30.6312 147.648 30.0631 147.997 29.3256C148.347 28.588 148.521 27.7209 148.521 26.7243C148.521 25.2292 148.131 24.0432 147.35 23.1661C146.59 22.289 145.542 21.8505 144.207 21.8505C143.324 21.8505 142.564 22.0498 141.927 22.4485C141.29 22.8472 140.787 23.4153 140.417 24.1528C140.068 24.8704 139.893 25.7276 139.893 26.7243C139.893 28.2392 140.283 29.4352 141.064 30.3123C141.845 31.1894 142.892 31.6279 144.207 31.6279ZM156.34 34.1694C156.607 34.4286 156.987 34.5581 157.48 34.5581C158.528 34.5581 159.052 34.0498 159.052 33.0332V26.0963C159.052 24.8206 159.422 23.804 160.161 23.0465C160.921 22.289 161.928 21.9103 163.181 21.9103C164.249 21.9103 165.03 22.1993 165.523 22.7774C166.037 23.3555 166.293 24.2724 166.293 25.5282V33.0332C166.293 33.5116 166.427 33.8904 166.694 34.1694C166.961 34.4286 167.351 34.5581 167.865 34.5581C168.358 34.5581 168.738 34.4286 169.005 34.1694C169.272 33.8904 169.406 33.5116 169.406 33.0332V25.3488C169.406 24.0332 169.21 22.9468 168.82 22.0897C168.43 21.2126 167.834 20.5648 167.033 20.1462C166.252 19.7076 165.266 19.4884 164.075 19.4884C162.822 19.4884 161.712 19.7774 160.747 20.3555C160.047 20.76 159.482 21.3112 159.052 22.009V14.5847C159.052 14.0864 158.908 13.7076 158.621 13.4485C158.353 13.1894 157.973 13.0598 157.48 13.0598C156.987 13.0598 156.607 13.1894 156.34 13.4485C156.073 13.7076 155.94 14.0864 155.94 14.5847V33.0332C155.94 33.5116 156.073 33.8904 156.34 34.1694Z" fill="url(#paint0_linear_50_838)"/>
<defs>
<linearGradient id="paint0_linear_50_838" x1="278.128" y1="31.532" x2="325.461" y2="34.3222" gradientUnits="userSpaceOnUse">
<stop stop-color="#E53E3E"/>
<stop offset="1" stop-color="#E53E3E" stop-opacity="0"/>
</linearGradient>
</defs>
</svg>
