<svg
    width="160"
    height="70"
    viewBox="0 0 160 70"
    fill="none"
    xmlns="http://www.w3.org/2000/svg"
>
    <path
        d="M186 45.2H72.5321C71.9308 45.2 71.3581 44.9433 70.958 44.4945V44.4945C69.363 42.7053 66.4844 43.0024 65.2885 45.0796L64.8161 45.9H64.5574C62.7524 45.9 61.1711 47.1087 60.6975 48.8504L59.1896 54.3959C58.8984 55.4666 57.3401 55.3372 57.2296 54.2331L52.1876 3.87868C52.0654 2.65847 50.2773 2.68748 50.1948 3.91102L45.9382 67.0227C45.8579 68.2134 44.1354 68.2881 43.9523 67.1089L42.2438 56.1046C41.7536 52.9472 39.7841 50.2142 36.9441 48.7502L35.5695 48.0417C34.2908 47.3826 33.2916 46.2861 32.7537 44.9519L31.5717 42.0199C30.6976 39.8516 27.7891 39.4721 26.3879 41.3435L23.5003 45.2H1.51992e-06"
        stroke="url(#paint0_linear_1_762)"
        stroke-width="4"
    />
    <defs>
        <linearGradient
            id="paint0_linear_1_762"
            x1="102.277"
            y1="-8"
            x2="21.8382"
            y2="62.6817"
            gradientUnits="userSpaceOnUse"
        >
            <stop stop-color="#E53E3E" stop-opacity="0" />
            <stop offset="1" stop-color="#E53E3E" />
        </linearGradient>
    </defs>
</svg>