<svg width="25" height="24" viewBox="0 0 25 24" fill="none" xmlns="http://www.w3.org/2000/svg">
<path d="M21.5319 18.4395L17.7242 14.6318C18.5109 13.446 18.9714 12.0262 18.9714 10.5C18.9714 6.3645 15.6069 3 11.4714 3C7.33594 3 3.97144 6.3645 3.97144 10.5C3.97144 14.6355 7.33594 18 11.4714 18C12.9977 18 14.4174 17.5395 15.6032 16.7528L19.4109 20.5605C19.9959 21.1462 20.9469 21.1462 21.5319 20.5605C22.1177 19.9748 22.1177 19.0252 21.5319 18.4395ZM6.22144 10.5C6.22144 7.605 8.57644 5.25 11.4714 5.25C14.3664 5.25 16.7214 7.605 16.7214 10.5C16.7214 13.395 14.3664 15.75 11.4714 15.75C8.57644 15.75 6.22144 13.395 6.22144 10.5Z" fill="white"/>
</svg>
