<svg width="18" height="18" viewBox="0 0 18 18" fill="none" xmlns="http://www.w3.org/2000/svg">
<path d="M4.5392 11.0588C5.13975 11.0554 5.71737 10.8278 6.1588 10.4206L10.4549 12.8774C10.4002 13.0671 10.3724 13.2634 10.3725 13.4608C10.3681 14.0177 10.5558 14.5592 10.9038 14.994C11.2519 15.4288 11.7392 15.7303 12.2836 15.8479C12.828 15.9655 13.3963 15.8919 13.8928 15.6395C14.3893 15.3871 14.7836 14.9714 15.0095 14.4623C15.2353 13.9531 15.2788 13.3817 15.1327 12.8443C14.9865 12.3069 14.6597 11.8362 14.2071 11.5115C13.7546 11.1869 13.204 11.0281 12.648 11.0619C12.0921 11.0957 11.5648 11.32 11.1549 11.6971L6.8588 9.24019C6.91065 9.07107 6.93837 8.89549 6.94116 8.71862L11.1617 6.30294C11.5694 6.67136 12.0914 6.88839 12.6401 6.91763C13.1888 6.94688 13.7309 6.78656 14.1755 6.46356C14.62 6.14056 14.94 5.67453 15.0817 5.14363C15.2234 4.61272 15.1782 4.04923 14.9538 3.54767C14.7294 3.0461 14.3393 2.63696 13.849 2.38886C13.3587 2.14076 12.798 2.06879 12.2609 2.18503C11.7239 2.30127 11.2431 2.59864 10.8993 3.02727C10.5555 3.4559 10.3695 3.98973 10.3725 4.53921C10.3749 4.73638 10.4025 4.93244 10.4549 5.12255L6.54998 7.35294C6.32372 7.00291 6.01027 6.71778 5.64045 6.52557C5.27062 6.33336 4.85715 6.24069 4.44066 6.25667C4.02418 6.27265 3.61902 6.39673 3.26501 6.61671C2.911 6.83669 2.62033 7.145 2.42155 7.51134C2.22278 7.87768 2.12275 8.28944 2.1313 8.70614C2.13985 9.12284 2.25669 9.53015 2.47032 9.88803C2.68395 10.2459 2.98703 10.542 3.34976 10.7473C3.7125 10.9526 4.12241 11.0599 4.5392 11.0588ZM12.7745 12.4314C12.9781 12.4314 13.1771 12.4917 13.3464 12.6049C13.5157 12.718 13.6476 12.8787 13.7255 13.0668C13.8035 13.2549 13.8238 13.4619 13.7841 13.6616C13.7444 13.8613 13.6464 14.0447 13.5024 14.1887C13.3584 14.3327 13.175 14.4307 12.9753 14.4704C12.7756 14.5101 12.5687 14.4897 12.3806 14.4118C12.1925 14.3339 12.0317 14.202 11.9186 14.0327C11.8055 13.8634 11.7451 13.6644 11.7451 13.4608C11.7451 13.1878 11.8535 12.9259 12.0466 12.7329C12.2396 12.5398 12.5015 12.4314 12.7745 12.4314ZM12.7745 3.5098C12.9781 3.5098 13.1771 3.57017 13.3464 3.68329C13.5157 3.7964 13.6476 3.95717 13.7255 4.14527C13.8035 4.33337 13.8238 4.54035 13.7841 4.74004C13.7444 4.93973 13.6464 5.12315 13.5024 5.26712C13.3584 5.41108 13.175 5.50912 12.9753 5.54884C12.7756 5.58856 12.5687 5.56818 12.3806 5.49026C12.1925 5.41235 12.0317 5.28041 11.9186 5.11112C11.8055 4.94184 11.7451 4.74281 11.7451 4.53921C11.7451 4.26619 11.8535 4.00436 12.0466 3.81131C12.2396 3.61826 12.5015 3.5098 12.7745 3.5098ZM4.5392 7.62745C4.74279 7.62745 4.94182 7.68782 5.11111 7.80093C5.28039 7.91405 5.41234 8.07482 5.49025 8.26292C5.56816 8.45102 5.58855 8.658 5.54883 8.85769C5.50911 9.05737 5.41107 9.2408 5.2671 9.38476C5.12313 9.52873 4.93971 9.62677 4.74002 9.66649C4.54034 9.70621 4.33336 9.68582 4.14526 9.60791C3.95716 9.53 3.79638 9.39805 3.68327 9.22877C3.57016 9.05948 3.50978 8.86046 3.50978 8.65686C3.50978 8.38384 3.61824 8.12201 3.81129 7.92895C4.00434 7.7359 4.26618 7.62745 4.5392 7.62745Z" fill="#1A202C"/>
</svg>
