<svg xmlns="http://www.w3.org/2000/svg" fill="none" viewBox="0 0 24 24" width="1em" height="1em" data-component="Twitter" class="zPWJk _4JMJl qew4H" aria-hidden="true">
    <path fill="#1DA1F2" d="M20.516 5.31c-.494.321-1.628.787-2.187.787v.001A3.476 3.476 0 0 0 15.794 5c-1.937 0-3.507 1.592-3.507 3.554 0 .273.03.538.088.794-2.627-.07-5.5-1.405-7.23-3.69-1.063 1.866-.143 3.941 1.064 4.697-.413.032-1.174-.048-1.532-.402-.024 1.239.564 2.88 2.706 3.475-.413.224-1.143.16-1.46.112.11 1.046 1.555 2.412 3.134 2.412-.563.66-2.68 1.857-5.057 1.476A10.433 10.433 0 0 0 9.486 19c5.658 0 10.053-4.648 9.816-10.382l-.001-.02.001-.044-.002-.052a6.097 6.097 0 0 0 1.7-1.82c-.286.16-1.145.48-1.945.56.513-.281 1.273-1.2 1.461-1.931z"></path>
</svg>