<svg xmlns="http://www.w3.org/2000/svg" fill="none" viewBox="0 0 24 24" width="1em" height="1em" data-component="Whatsapp" class="zPWJk _4JMJl qew4H" aria-hidden="true">
    <path fill="green" d="M16.557 15.098c-.208.515-1.148.986-1.563 1.007-.414.023-.426.322-2.685-.66-2.26-.982-3.618-3.369-3.726-3.522-.107-.153-.875-1.248-.833-2.349.042-1.101.645-1.62.86-1.837a.865.865 0 0 1 .612-.258c.178-.003.293-.005.425 0 .131.005.329-.028.5.427.17.455.58 1.573.633 1.687.052.114.084.247.004.393-.081.147-.123.238-.24.365-.118.126-.248.283-.353.38-.118.107-.24.223-.117.452.123.23.549.979 1.197 1.597.832.794 1.55 1.058 1.772 1.178.221.12.353.107.49-.037.138-.145.589-.633.748-.851.159-.219.308-.176.512-.094.204.083 1.292.665 1.514.786.22.12.369.182.422.277.053.096.036.544-.172 1.06zM12.163 3c-4.88 0-8.836 3.925-8.836 8.768 0 1.657.463 3.206 1.268 4.528L3 21l4.892-1.554a8.854 8.854 0 0 0 4.271 1.09c4.88 0 8.837-3.926 8.837-8.768C21 6.925 17.044 3 12.163 3z"></path>
</svg>